<svg width="364" height="165" viewBox="0 0 364 165" fill="none" xmlns="http://www.w3.org/2000/svg">
<rect width="364" height="165" rx="14" fill="#94E692"/>
<path d="M22.3389 98.2783C18.6279 98.2783 15.888 97.3135 14.1191 95.3838C12.3626 93.4541 11.4844 90.4544 11.4844 86.3848C11.4844 78.5547 15.1582 74.6396 22.5059 74.6396C23.5078 74.6396 24.5469 74.7386 25.623 74.9365C26.6992 75.1344 27.596 75.4128 28.3135 75.7715C29.0433 76.1178 29.4082 76.5075 29.4082 76.9404C29.4082 77.2497 29.2845 77.6579 29.0371 78.165C28.7897 78.6598 28.4928 79.099 28.1465 79.4824C27.8125 79.8659 27.5156 80.0576 27.2559 80.0576C27.194 80.0576 27.027 79.9958 26.7549 79.8721C26.1611 79.6247 25.5365 79.4206 24.8809 79.2598C24.2376 79.0866 23.415 79 22.4131 79C20.471 79 19.0299 79.6185 18.0898 80.8555C17.1621 82.0801 16.6982 83.9355 16.6982 86.4219C16.6982 88.9082 17.1683 90.7822 18.1084 92.0439C19.0485 93.3057 20.4587 93.9365 22.3389 93.9365C23.3161 93.9365 24.1634 93.8376 24.8809 93.6396C25.6107 93.4417 26.3219 93.1882 27.0146 92.8789C27.0518 92.8665 27.1631 92.8232 27.3486 92.749C27.5342 92.6624 27.6702 92.6191 27.7568 92.6191C28.0785 92.6191 28.3877 92.8109 28.6846 93.1943C28.9814 93.5654 29.2227 93.9922 29.4082 94.4746C29.5938 94.9447 29.6865 95.2848 29.6865 95.4951C29.6865 96.1012 29.2783 96.6146 28.4619 97.0352C27.6579 97.4557 26.6807 97.7712 25.5303 97.9814C24.3923 98.1794 23.3285 98.2783 22.3389 98.2783ZM39.8545 98.2783C37.2445 98.2783 35.2529 97.5114 33.8799 95.9775C32.5192 94.4437 31.8389 92.2357 31.8389 89.3535C31.8389 86.4837 32.5192 84.2881 33.8799 82.7666C35.2529 81.2451 37.2445 80.4844 39.8545 80.4844C42.4645 80.4844 44.4437 81.2451 45.792 82.7666C47.1527 84.2757 47.833 86.4714 47.833 89.3535C47.833 92.2357 47.1527 94.4437 45.792 95.9775C44.4437 97.5114 42.4645 98.2783 39.8545 98.2783ZM39.8545 94.4004C40.8936 94.4004 41.6543 93.9798 42.1367 93.1387C42.6315 92.2975 42.8789 91.0358 42.8789 89.3535C42.8789 87.6836 42.6315 86.4281 42.1367 85.5869C41.6543 84.7458 40.8936 84.3252 39.8545 84.3252C37.8011 84.3252 36.7744 86.0013 36.7744 89.3535C36.7744 91.0234 37.0218 92.2852 37.5166 93.1387C38.0238 93.9798 38.8031 94.4004 39.8545 94.4004ZM56.7949 98.2783C55.5951 98.2783 54.5251 97.932 53.585 97.2393C52.6572 96.5342 51.9274 95.5137 51.3955 94.1777C50.876 92.8294 50.6162 91.2214 50.6162 89.3535C50.6162 87.5599 50.8883 85.9951 51.4326 84.6592C51.9769 83.3232 52.7686 82.2965 53.8076 81.5791C54.859 80.8493 56.1146 80.4844 57.5742 80.4844C58.8854 80.4844 60.0049 80.8245 60.9326 81.5049V74.1943C60.9326 73.4769 61.5944 73.1182 62.918 73.1182H63.8457C64.526 73.1182 65.0208 73.2109 65.3301 73.3965C65.6517 73.5697 65.8125 73.8356 65.8125 74.1943V92.1738C65.8125 93.2005 65.8372 93.9984 65.8867 94.5674C65.9486 95.1364 66.029 95.6992 66.1279 96.2559C66.1898 96.5898 66.2207 96.8249 66.2207 96.9609C66.2207 97.2083 65.9857 97.4124 65.5156 97.5732C65.0579 97.734 64.5322 97.8516 63.9385 97.9258C63.3571 98 62.887 98.0371 62.5283 98.0371C62.1449 98.0371 61.8727 97.8887 61.7119 97.5918C61.5635 97.2949 61.4274 96.862 61.3037 96.293L61.1924 95.792C60.7965 96.5218 60.209 97.1217 59.4297 97.5918C58.6504 98.0495 57.7721 98.2783 56.7949 98.2783ZM58.2422 94.2705C59.2812 94.2705 60.1781 93.6211 60.9326 92.3223V84.9561C60.1533 84.5355 59.3864 84.3252 58.6318 84.3252C56.5785 84.3252 55.5518 86.0013 55.5518 89.3535C55.5518 92.6315 56.4486 94.2705 58.2422 94.2705ZM71.8242 77.9053C71.1315 77.9053 70.6243 77.8187 70.3027 77.6455C69.9935 77.4723 69.8389 77.2064 69.8389 76.8477V74.1943C69.8389 73.8356 69.9997 73.5697 70.3213 73.3965C70.6429 73.2109 71.1439 73.1182 71.8242 73.1182H72.7334C73.4137 73.1182 73.9147 73.2109 74.2363 73.3965C74.5579 73.5697 74.7188 73.8356 74.7188 74.1943V76.8477C74.7188 77.2064 74.5579 77.4723 74.2363 77.6455C73.9271 77.8187 73.4261 77.9053 72.7334 77.9053H71.8242ZM71.8242 98.0557C70.5007 98.0557 69.8389 97.7093 69.8389 97.0166V81.7275C69.8389 81.3812 69.9997 81.1214 70.3213 80.9482C70.6429 80.7751 71.1439 80.6885 71.8242 80.6885H72.7334C73.4137 80.6885 73.9147 80.7751 74.2363 80.9482C74.5579 81.1214 74.7188 81.3812 74.7188 81.7275V97.0166C74.7188 97.7093 74.057 98.0557 72.7334 98.0557H71.8242ZM80.6748 98.0557C79.3636 98.0557 78.708 97.7093 78.708 97.0166V86.5518C78.708 84.9684 78.6029 83.651 78.3926 82.5996C78.3307 82.2656 78.2998 82.0306 78.2998 81.8945C78.2998 81.6471 78.5286 81.4492 78.9863 81.3008C79.4564 81.14 79.9821 81.0225 80.5635 80.9482C81.1572 80.874 81.6335 80.8369 81.9922 80.8369C82.3757 80.8369 82.6416 80.9792 82.79 81.2637C82.9508 81.5482 83.0931 81.9626 83.2168 82.5068L83.3281 82.9893C83.8477 82.2965 84.5404 81.709 85.4062 81.2266C86.2845 80.7318 87.2246 80.4844 88.2266 80.4844C89.8841 80.4844 91.1087 80.9173 91.9004 81.7832C92.6921 82.6491 93.0879 83.9912 93.0879 85.8096V97.0166C93.0879 97.7093 92.4199 98.0557 91.084 98.0557H90.1748C88.8636 98.0557 88.208 97.7093 88.208 97.0166V86.5518C88.208 85.8838 88.0472 85.3766 87.7256 85.0303C87.4163 84.6839 86.9092 84.5107 86.2041 84.5107C85.6104 84.5107 85.0846 84.7087 84.627 85.1045C84.1693 85.5003 83.8229 85.9395 83.5879 86.4219V97.0166C83.5879 97.7093 82.9199 98.0557 81.584 98.0557H80.6748ZM103.664 104.995C98.4316 104.995 95.8154 103.474 95.8154 100.431C95.8154 99.5771 96.069 98.8226 96.5762 98.167C97.0957 97.5114 97.8441 96.9919 98.8213 96.6084L98.8398 96.4785C98.3945 96.2435 98.0482 95.9095 97.8008 95.4766C97.5534 95.0436 97.4297 94.555 97.4297 94.0107C97.4297 93.4541 97.5967 92.9408 97.9307 92.4707C98.277 92.0007 98.7718 91.5986 99.415 91.2646C98.5739 90.7946 97.9121 90.1514 97.4297 89.335C96.9596 88.5186 96.7246 87.5228 96.7246 86.3477C96.7246 84.3438 97.374 82.8656 98.6729 81.9131C99.984 80.9606 101.703 80.4844 103.831 80.4844C104.722 80.4844 105.569 80.571 106.373 80.7441H111.68C112.026 80.7441 112.28 80.8802 112.44 81.1523C112.601 81.4121 112.682 81.8265 112.682 82.3955V82.9521C112.682 83.9912 112.416 84.5107 111.884 84.5107C111.698 84.5107 111.445 84.4984 111.123 84.4736C110.814 84.4489 110.591 84.418 110.455 84.3809L110.399 84.5107C110.548 84.7087 110.672 84.987 110.771 85.3457C110.869 85.6921 110.919 86.026 110.919 86.3477C110.919 88.3145 110.3 89.7803 109.063 90.7451C107.826 91.6976 106.206 92.1738 104.202 92.1738C102.854 92.1738 102.18 92.4769 102.18 93.083C102.18 93.3551 102.316 93.5716 102.588 93.7324C102.86 93.8809 103.206 93.9984 103.627 94.085C104.06 94.1715 104.672 94.2643 105.464 94.3633C106.033 94.4251 106.565 94.4993 107.06 94.5859C108.618 94.8952 109.861 95.4023 110.789 96.1074C111.717 96.8001 112.181 97.8949 112.181 99.3916C112.181 100.517 111.828 101.501 111.123 102.342C110.418 103.183 109.422 103.832 108.136 104.29C106.849 104.76 105.359 104.995 103.664 104.995ZM103.831 88.667C104.561 88.667 105.155 88.4753 105.612 88.0918C106.082 87.7083 106.317 87.127 106.317 86.3477C106.317 85.5684 106.082 84.987 105.612 84.6035C105.155 84.2077 104.561 84.0098 103.831 84.0098C103.101 84.0098 102.501 84.2077 102.031 84.6035C101.574 84.987 101.345 85.5684 101.345 86.3477C101.345 87.127 101.574 87.7083 102.031 88.0918C102.501 88.4753 103.101 88.667 103.831 88.667ZM104.035 101.136C105.148 101.136 105.99 100.993 106.559 100.709C107.14 100.424 107.431 100.029 107.431 99.5215C107.431 99.1751 107.264 98.8968 106.93 98.6865C106.608 98.4886 106.082 98.3216 105.353 98.1855C104.635 98.0618 103.627 97.9567 102.328 97.8701C101.771 98.068 101.339 98.3278 101.029 98.6494C100.72 98.971 100.565 99.305 100.565 99.6514C100.565 100.121 100.85 100.486 101.419 100.746C101.988 101.006 102.86 101.136 104.035 101.136ZM119.547 98.2783C118.693 98.2783 117.846 98.1855 117.005 98C116.164 97.8145 115.465 97.5485 114.908 97.2021C114.364 96.8558 114.092 96.46 114.092 96.0146C114.092 95.7425 114.191 95.4023 114.389 94.9941C114.587 94.5859 114.822 94.2334 115.094 93.9365C115.378 93.6273 115.626 93.4727 115.836 93.4727C115.947 93.4727 116.188 93.5592 116.56 93.7324C116.993 93.9303 117.407 94.0911 117.803 94.2148C118.199 94.3385 118.65 94.4004 119.157 94.4004C119.788 94.4004 120.264 94.2829 120.586 94.0479C120.908 93.8128 121.068 93.4665 121.068 93.0088C121.068 92.6624 120.969 92.3779 120.771 92.1553C120.586 91.9202 120.345 91.7285 120.048 91.5801C119.751 91.4316 119.33 91.2523 118.786 91.042L118.248 90.8379C117.543 90.5658 116.924 90.2565 116.393 89.9102C115.861 89.5638 115.409 89.0628 115.038 88.4072C114.667 87.7393 114.481 86.8981 114.481 85.8838C114.481 84.7581 114.723 83.7933 115.205 82.9893C115.7 82.1729 116.399 81.5544 117.302 81.1338C118.205 80.7008 119.269 80.4844 120.493 80.4844C121.198 80.4844 121.934 80.5524 122.701 80.6885C123.468 80.8245 124.111 81.0348 124.631 81.3193C125.163 81.6038 125.429 81.9626 125.429 82.3955C125.429 82.6429 125.348 82.9769 125.188 83.3975C125.039 83.818 124.854 84.1891 124.631 84.5107C124.408 84.8324 124.198 84.9932 124 84.9932C123.938 84.9932 123.765 84.9375 123.48 84.8262C123.097 84.6654 122.726 84.5417 122.367 84.4551C122.021 84.3561 121.619 84.3066 121.161 84.3066C119.998 84.3066 119.417 84.6901 119.417 85.457C119.417 85.8034 119.522 86.1003 119.732 86.3477C119.955 86.5951 120.227 86.7992 120.549 86.96C120.87 87.1208 121.322 87.3125 121.903 87.5352C122.571 87.8073 122.986 87.9805 123.146 88.0547C124.012 88.4876 124.705 89.0628 125.225 89.7803C125.757 90.4854 126.022 91.4316 126.022 92.6191C126.022 93.7448 125.769 94.7344 125.262 95.5879C124.755 96.4414 124.012 97.1032 123.035 97.5732C122.058 98.0433 120.895 98.2783 119.547 98.2783ZM134.038 98.2783C132.467 98.2783 131.267 97.8392 130.438 96.9609C129.622 96.0703 129.214 94.722 129.214 92.916V84.6035H128.694C128.348 84.6035 128.094 84.4736 127.934 84.2139C127.785 83.9541 127.711 83.5335 127.711 82.9521V82.3955C127.711 81.8141 127.785 81.3936 127.934 81.1338C128.094 80.874 128.348 80.7441 128.694 80.7441H129.214L129.641 77.6084C129.74 76.9157 130.333 76.5693 131.422 76.5693H132.461C133.03 76.5693 133.444 76.6559 133.704 76.8291C133.976 77.0023 134.112 77.262 134.112 77.6084V80.7441H135.727C136.073 80.7441 136.32 80.874 136.469 81.1338C136.63 81.3936 136.71 81.8141 136.71 82.3955V82.9521C136.71 83.5335 136.63 83.9541 136.469 84.2139C136.32 84.4736 136.073 84.6035 135.727 84.6035H134.112V92.9717C134.112 93.4788 134.199 93.8438 134.372 94.0664C134.558 94.2891 134.861 94.4004 135.281 94.4004C135.405 94.4004 135.572 94.3818 135.782 94.3447C135.993 94.2952 136.122 94.2705 136.172 94.2705C136.37 94.2705 136.543 94.4375 136.691 94.7715C136.852 95.0931 136.976 95.4518 137.062 95.8477C137.161 96.2435 137.211 96.5094 137.211 96.6455C137.211 97.734 136.153 98.2783 134.038 98.2783ZM147.991 98.2783C145.097 98.2783 142.938 97.5052 141.516 95.959C140.093 94.4004 139.382 92.2419 139.382 89.4834C139.382 86.3786 140.093 84.1025 141.516 82.6553C142.938 81.208 144.899 80.4844 147.397 80.4844C149.055 80.4844 150.41 80.8617 151.461 81.6162C152.525 82.3708 153.298 83.3851 153.78 84.6592C154.275 85.9333 154.522 87.3743 154.522 88.9824C154.522 89.168 154.411 89.4154 154.188 89.7246C153.978 90.0339 153.737 90.3122 153.465 90.5596C153.193 90.807 152.982 90.9307 152.834 90.9307H144.429C144.54 92.1924 144.911 93.0892 145.542 93.6211C146.185 94.1406 147.076 94.4004 148.214 94.4004C148.832 94.4004 149.389 94.3324 149.884 94.1963C150.391 94.0479 150.929 93.8561 151.498 93.6211C151.844 93.4603 152.079 93.3799 152.203 93.3799C152.426 93.3799 152.667 93.5407 152.927 93.8623C153.199 94.1715 153.428 94.5303 153.613 94.9385C153.811 95.3467 153.91 95.6621 153.91 95.8848C153.91 96.3919 153.564 96.8249 152.871 97.1836C152.191 97.5423 151.381 97.8145 150.44 98C149.513 98.1855 148.696 98.2783 147.991 98.2783ZM149.772 87.6836C149.772 86.6693 149.575 85.859 149.179 85.2529C148.783 84.6344 148.189 84.3252 147.397 84.3252C145.765 84.3252 144.775 85.4447 144.429 87.6836H149.772ZM160.107 104.81C159.427 104.81 158.926 104.717 158.604 104.531C158.283 104.358 158.122 104.092 158.122 103.733V86.5518C158.122 85.5622 158.091 84.7891 158.029 84.2324C157.98 83.6634 157.912 83.1191 157.825 82.5996C157.763 82.2656 157.732 82.0306 157.732 81.8945C157.732 81.6471 157.961 81.4492 158.419 81.3008C158.877 81.14 159.396 81.0225 159.978 80.9482C160.571 80.874 161.048 80.8369 161.406 80.8369C161.802 80.8369 162.074 80.9854 162.223 81.2822C162.383 81.5667 162.526 81.9811 162.649 82.5254L162.742 82.9521C163.126 82.2223 163.707 81.6286 164.486 81.1709C165.278 80.7132 166.169 80.4844 167.158 80.4844C168.358 80.4844 169.422 80.8307 170.35 81.5234C171.277 82.2161 172.001 83.2367 172.521 84.585C173.052 85.9209 173.318 87.5228 173.318 89.3906C173.318 91.1842 173.046 92.749 172.502 94.085C171.958 95.4209 171.166 96.4538 170.127 97.1836C169.088 97.9134 167.839 98.2783 166.379 98.2783C165.13 98.2783 163.998 97.932 162.983 97.2393V103.733C162.983 104.092 162.823 104.358 162.501 104.531C162.192 104.717 161.697 104.81 161.017 104.81H160.107ZM165.303 94.4004C167.344 94.4004 168.364 92.7305 168.364 89.3906C168.364 86.1126 167.48 84.4736 165.711 84.4736C164.672 84.4736 163.763 85.123 162.983 86.4219V93.7695C163.75 94.1901 164.523 94.4004 165.303 94.4004ZM181.223 98.2783C180.369 98.2783 179.522 98.1855 178.681 98C177.84 97.8145 177.141 97.5485 176.584 97.2021C176.04 96.8558 175.768 96.46 175.768 96.0146C175.768 95.7425 175.867 95.4023 176.064 94.9941C176.262 94.5859 176.497 94.2334 176.77 93.9365C177.054 93.6273 177.301 93.4727 177.512 93.4727C177.623 93.4727 177.864 93.5592 178.235 93.7324C178.668 93.9303 179.083 94.0911 179.479 94.2148C179.874 94.3385 180.326 94.4004 180.833 94.4004C181.464 94.4004 181.94 94.2829 182.262 94.0479C182.583 93.8128 182.744 93.4665 182.744 93.0088C182.744 92.6624 182.645 92.3779 182.447 92.1553C182.262 91.9202 182.021 91.7285 181.724 91.5801C181.427 91.4316 181.006 91.2523 180.462 91.042L179.924 90.8379C179.219 90.5658 178.6 90.2565 178.068 89.9102C177.536 89.5638 177.085 89.0628 176.714 88.4072C176.343 87.7393 176.157 86.8981 176.157 85.8838C176.157 84.7581 176.398 83.7933 176.881 82.9893C177.376 82.1729 178.075 81.5544 178.978 81.1338C179.881 80.7008 180.944 80.4844 182.169 80.4844C182.874 80.4844 183.61 80.5524 184.377 80.6885C185.144 80.8245 185.787 81.0348 186.307 81.3193C186.839 81.6038 187.104 81.9626 187.104 82.3955C187.104 82.6429 187.024 82.9769 186.863 83.3975C186.715 83.818 186.529 84.1891 186.307 84.5107C186.084 84.8324 185.874 84.9932 185.676 84.9932C185.614 84.9932 185.441 84.9375 185.156 84.8262C184.773 84.6654 184.402 84.5417 184.043 84.4551C183.697 84.3561 183.295 84.3066 182.837 84.3066C181.674 84.3066 181.093 84.6901 181.093 85.457C181.093 85.8034 181.198 86.1003 181.408 86.3477C181.631 86.5951 181.903 86.7992 182.225 86.96C182.546 87.1208 182.998 87.3125 183.579 87.5352C184.247 87.8073 184.661 87.9805 184.822 88.0547C185.688 88.4876 186.381 89.0628 186.9 89.7803C187.432 90.4854 187.698 91.4316 187.698 92.6191C187.698 93.7448 187.445 94.7344 186.938 95.5879C186.43 96.4414 185.688 97.1032 184.711 97.5732C183.734 98.0433 182.571 98.2783 181.223 98.2783ZM191.057 98.0557C189.733 98.0557 189.071 97.7093 189.071 97.0166V93.9736C189.071 93.2686 189.733 92.916 191.057 92.916H192.114C192.795 92.916 193.289 93.0088 193.599 93.1943C193.92 93.3675 194.081 93.6273 194.081 93.9736V97.0166C194.081 97.7093 193.425 98.0557 192.114 98.0557H191.057ZM204.323 98.2783C201.713 98.2783 199.722 97.5114 198.349 95.9775C196.988 94.4437 196.308 92.2357 196.308 89.3535C196.308 86.4837 196.988 84.2881 198.349 82.7666C199.722 81.2451 201.713 80.4844 204.323 80.4844C206.933 80.4844 208.912 81.2451 210.261 82.7666C211.621 84.2757 212.302 86.4714 212.302 89.3535C212.302 92.2357 211.621 94.4437 210.261 95.9775C208.912 97.5114 206.933 98.2783 204.323 98.2783ZM204.323 94.4004C205.362 94.4004 206.123 93.9798 206.605 93.1387C207.1 92.2975 207.348 91.0358 207.348 89.3535C207.348 87.6836 207.1 86.4281 206.605 85.5869C206.123 84.7458 205.362 84.3252 204.323 84.3252C202.27 84.3252 201.243 86.0013 201.243 89.3535C201.243 91.0234 201.491 92.2852 201.985 93.1387C202.493 93.9798 203.272 94.4004 204.323 94.4004ZM217.72 98.0557C216.409 98.0557 215.753 97.7093 215.753 97.0166V86.5518C215.753 84.9684 215.648 83.651 215.438 82.5996C215.376 82.2656 215.345 82.0306 215.345 81.8945C215.345 81.6471 215.574 81.4492 216.031 81.3008C216.501 81.14 217.027 81.0225 217.608 80.9482C218.202 80.874 218.678 80.8369 219.037 80.8369C219.421 80.8369 219.687 80.9792 219.835 81.2637C219.996 81.5482 220.138 81.9626 220.262 82.5068L220.373 82.9893C220.794 82.2223 221.276 81.6162 221.82 81.1709C222.377 80.7132 223.088 80.4844 223.954 80.4844C224.672 80.4844 225.166 80.6699 225.438 81.041C225.711 81.3997 225.847 81.8079 225.847 82.2656C225.847 82.513 225.803 82.8656 225.717 83.3232C225.63 83.7686 225.507 84.1644 225.346 84.5107C225.185 84.8571 225.006 85.0303 224.808 85.0303C224.672 85.0303 224.467 84.9932 224.195 84.9189C223.824 84.82 223.509 84.7705 223.249 84.7705C222.643 84.7705 222.111 84.9437 221.653 85.29C221.208 85.624 220.868 86.0013 220.633 86.4219V97.0166C220.633 97.7093 219.965 98.0557 218.629 98.0557H217.72ZM234.4 104.995C229.168 104.995 226.552 103.474 226.552 100.431C226.552 99.5771 226.805 98.8226 227.312 98.167C227.832 97.5114 228.58 96.9919 229.558 96.6084L229.576 96.4785C229.131 96.2435 228.785 95.9095 228.537 95.4766C228.29 95.0436 228.166 94.555 228.166 94.0107C228.166 93.4541 228.333 92.9408 228.667 92.4707C229.013 92.0007 229.508 91.5986 230.151 91.2646C229.31 90.7946 228.648 90.1514 228.166 89.335C227.696 88.5186 227.461 87.5228 227.461 86.3477C227.461 84.3438 228.11 82.8656 229.409 81.9131C230.72 80.9606 232.44 80.4844 234.567 80.4844C235.458 80.4844 236.305 80.571 237.109 80.7441H242.416C242.762 80.7441 243.016 80.8802 243.177 81.1523C243.338 81.4121 243.418 81.8265 243.418 82.3955V82.9521C243.418 83.9912 243.152 84.5107 242.62 84.5107C242.435 84.5107 242.181 84.4984 241.859 84.4736C241.55 84.4489 241.327 84.418 241.191 84.3809L241.136 84.5107C241.284 84.7087 241.408 84.987 241.507 85.3457C241.606 85.6921 241.655 86.026 241.655 86.3477C241.655 88.3145 241.037 89.7803 239.8 90.7451C238.563 91.6976 236.942 92.1738 234.938 92.1738C233.59 92.1738 232.916 92.4769 232.916 93.083C232.916 93.3551 233.052 93.5716 233.324 93.7324C233.596 93.8809 233.943 93.9984 234.363 94.085C234.796 94.1715 235.409 94.2643 236.2 94.3633C236.769 94.4251 237.301 94.4993 237.796 94.5859C239.354 94.8952 240.598 95.4023 241.525 96.1074C242.453 96.8001 242.917 97.8949 242.917 99.3916C242.917 100.517 242.564 101.501 241.859 102.342C241.154 103.183 240.159 103.832 238.872 104.29C237.586 104.76 236.095 104.995 234.4 104.995ZM234.567 88.667C235.297 88.667 235.891 88.4753 236.349 88.0918C236.819 87.7083 237.054 87.127 237.054 86.3477C237.054 85.5684 236.819 84.987 236.349 84.6035C235.891 84.2077 235.297 84.0098 234.567 84.0098C233.838 84.0098 233.238 84.2077 232.768 84.6035C232.31 84.987 232.081 85.5684 232.081 86.3477C232.081 87.127 232.31 87.7083 232.768 88.0918C233.238 88.4753 233.838 88.667 234.567 88.667ZM234.771 101.136C235.885 101.136 236.726 100.993 237.295 100.709C237.876 100.424 238.167 100.029 238.167 99.5215C238.167 99.1751 238 98.8968 237.666 98.6865C237.344 98.4886 236.819 98.3216 236.089 98.1855C235.371 98.0618 234.363 97.9567 233.064 97.8701C232.508 98.068 232.075 98.3278 231.766 98.6494C231.456 98.971 231.302 99.305 231.302 99.6514C231.302 100.121 231.586 100.486 232.155 100.746C232.724 101.006 233.596 101.136 234.771 101.136Z" fill="white"/>
<g clip-path="url(#clip0)">
<path fill-rule="evenodd" clip-rule="evenodd" d="M305.307 46C300.167 46 296 50.2476 296 55.4872V82.8451H257.006C251.84 82.8451 247.651 87.0334 247.651 92.1999V119.516H297.232H299.103H347V83H347V46H305.307ZM252.329 119.516H297.232H347V156H297.232H252.329H247.651H202V128.871C202 123.705 206.188 119.516 211.355 119.516H247.651H252.329Z" fill="#5A88FF"/>
<path d="M319.684 11H320.994V46.3613H319.684V11Z" fill="#D1D1D1"/>
<path d="M344.022 21.1141L320.156 29.873V12.3552L344.022 21.1141Z" fill="#FF5959"/>
<path d="M320.341 11.2467C320.749 11.2467 321.081 11.1915 321.081 11.1233C321.081 11.0552 320.749 11 320.341 11C319.932 11 319.601 11.0552 319.601 11.1233C319.601 11.1915 319.932 11.2467 320.341 11.2467Z" fill="#9A9999"/>
</g>
<defs>
<clipPath id="clip0">
<rect width="145" height="145" fill="white" transform="translate(202 11)"/>
</clipPath>
</defs>
</svg>
