<svg width="837" height="541" viewBox="0 0 837 541" fill="none" xmlns="http://www.w3.org/2000/svg">
<path fill-rule="evenodd" clip-rule="evenodd" d="M19.5781 537.835C19.5781 539.108 20.1647 540.391 21.3839 540.753C21.9226 540.914 22.4932 541 23.0837 541H815.127C818.422 541 821.092 538.329 821.092 535.033V500.455C821.092 497.161 818.422 494.488 815.127 494.488H23.0837C22.4932 494.488 21.9226 494.575 21.3839 494.734C20.1647 495.096 19.5781 496.381 19.5781 497.652V537.835Z" fill="#C4C4C4"/>
<path d="M158.109 388.456C159.506 387.368 161.225 386.777 162.995 386.777H695.205C697.169 386.777 699.062 387.505 700.523 388.818L821.584 497.754C827.003 502.631 823.556 511.625 816.266 511.625H23.1565C15.5868 511.625 12.2981 502.044 18.2707 497.392L158.109 388.456Z" fill="#8D611F"/>
<g filter="url(#filter0_d)">
<path d="M376.797 369.433H333.805V408.855H376.797V369.433Z" fill="#A29F9F"/>
<path d="M401.134 308.873C268.118 356.905 529.032 402.896 401.134 417.203" stroke="#383838" stroke-width="1.5"/>
<path d="M227.666 418.13C229.352 416.922 231.376 416.272 233.45 416.272H485.826C488.586 416.272 491.22 417.42 493.099 419.438L521.734 450.182C525.287 453.999 522.583 460.216 517.37 460.216H187.454C181.654 460.216 179.267 452.774 183.984 449.398L227.666 418.13Z" fill="#D6D5D5"/>
<path d="M438.883 423.414C438.042 422.09 438.992 420.359 440.561 420.359H483.148C483.699 420.359 484.226 420.588 484.601 420.992L509.532 447.672C510.721 448.943 509.82 451.019 508.081 451.019H457.479C456.798 451.019 456.165 450.671 455.8 450.096L438.883 423.414Z" fill="#333333"/>
<path d="M233.281 421.183C233.977 420.65 234.828 420.359 235.705 420.359H428.491C429.885 420.359 431.177 421.089 431.897 422.282L445.587 444.987C447.185 447.638 445.277 451.019 442.181 451.019H206.153C202.356 451.019 200.72 446.202 203.732 443.887L233.281 421.183Z" fill="#333333"/>
<path d="M238.446 219.246C238.446 204.966 250.017 193.389 264.292 193.389H445.889C460.164 193.389 471.735 204.966 471.735 219.246V356.195C471.735 370.474 460.164 382.052 445.889 382.052H264.292C250.017 382.052 238.446 370.474 238.446 356.195V219.246Z" fill="#DEDDDD"/>
<mask id="mask0" mask-type="alpha" maskUnits="userSpaceOnUse" x="238" y="193" width="234" height="190">
<path d="M238.446 204.653C238.446 198.432 243.496 193.389 249.723 193.389H460.458C466.685 193.389 471.735 198.432 471.735 204.653V370.788C471.735 377.008 466.685 382.052 460.458 382.052H249.723C243.496 382.052 238.446 377.008 238.446 370.788V204.653Z" fill="white"/>
</mask>
<g mask="url(#mask0)">
<path d="M245.495 219.435C245.495 213.216 250.543 208.172 256.772 208.172H453.411C459.638 208.172 464.688 213.216 464.688 219.435V355.3C464.688 361.521 459.638 366.563 453.411 366.563H256.772C250.543 366.563 245.495 361.521 245.495 355.3V219.435Z" fill="#1C1A1A"/>
<path d="M337.402 222.978H261.694C258.4 222.978 255.729 225.649 255.729 228.944V230.572C255.729 233.868 258.4 236.539 261.694 236.539H337.402C340.696 236.539 343.367 233.868 343.367 230.572V228.944C343.367 225.649 340.696 222.978 337.402 222.978Z" fill="#F25353"/>
<path d="M415.164 301.882H378.954C375.66 301.882 372.989 304.554 372.989 307.849V309.477C372.989 312.772 375.66 315.444 378.954 315.444H415.164C418.458 315.444 421.128 312.772 421.128 309.477V307.849C421.128 304.554 418.458 301.882 415.164 301.882Z" fill="#55A7B9"/>
<path d="M358.386 301.882H272.803C269.509 301.882 266.839 304.554 266.839 307.849V309.477C266.839 312.772 269.509 315.444 272.803 315.444H358.386C361.68 315.444 364.351 312.772 364.351 309.477V307.849C364.351 304.554 361.68 301.882 358.386 301.882Z" fill="#55A7B9"/>
<path d="M272.379 289.552H304.886C308.18 289.552 310.851 286.881 310.851 283.586V281.958C310.851 278.662 308.18 275.991 304.886 275.991H272.379C269.085 275.991 266.415 278.662 266.415 281.958V283.586C266.415 286.881 269.085 289.552 272.379 289.552Z" fill="#4EBB52"/>
<path d="M322.933 289.552H438.615C441.909 289.552 444.579 286.881 444.579 283.586V281.958C444.579 278.662 441.909 275.991 438.615 275.991H322.933C319.639 275.991 316.969 278.662 316.969 281.958V283.586C316.969 286.881 319.639 289.552 322.933 289.552Z" fill="#55A7B9"/>
<path d="M333.699 330.237H257.991C254.697 330.237 252.026 332.908 252.026 336.203V337.831C252.026 341.127 254.697 343.798 257.991 343.798H333.699C336.993 343.798 339.664 341.127 339.664 337.831V336.203C339.664 332.908 336.993 330.237 333.699 330.237Z" fill="#F25353"/>
<path d="M367.027 250.101H272.803C269.509 250.101 266.839 252.773 266.839 256.068V257.696C266.839 260.991 269.509 263.663 272.803 263.663H367.027C370.321 263.663 372.991 260.991 372.991 257.696V256.068C372.991 252.773 370.321 250.101 367.027 250.101Z" fill="#55A7B9"/>
<path d="M381.629 256.068C381.629 252.773 384.299 250.101 387.593 250.101H420.101C423.396 250.101 426.066 252.773 426.066 256.068V257.695C426.066 260.991 423.396 263.662 420.101 263.662H387.593C384.299 263.662 381.629 260.991 381.629 257.695V256.068Z" fill="#F29C1A"/>
</g>
</g>
<path d="M542.521 431.19C561.287 431.19 576.5 424.596 576.5 416.463C576.5 408.329 561.287 401.735 542.521 401.735C523.756 401.735 508.543 408.329 508.543 416.463C508.543 424.596 523.756 431.19 542.521 431.19Z" fill="url(#paint0_linear)"/>
<path fill-rule="evenodd" clip-rule="evenodd" d="M575.88 360.366C572.85 366.394 559.066 370.949 542.521 370.949C525.976 370.949 512.192 366.394 509.162 360.366C508.761 361.444 508.542 362.611 508.542 363.829V411.059C508.542 416.55 512.993 421.003 518.483 421.003H566.557C572.049 421.003 576.498 416.55 576.498 411.059V363.829C576.498 362.611 576.279 361.444 575.88 360.366Z" fill="url(#paint1_linear)"/>
<path d="M576.498 359.817C576.498 366.7 560.7 372.279 541.935 372.279C523.169 372.279 508.542 366.7 508.542 359.817C508.542 352.935 523.169 347.356 541.935 347.356C560.7 347.356 576.498 352.935 576.498 359.817Z" fill="#A9782E"/>
<path fill-rule="evenodd" clip-rule="evenodd" d="M576.498 359.252C576.498 360.105 576.283 360.943 575.874 361.752C575.482 360.704 574.92 359.739 574.22 358.894C573.717 352.489 559.716 347.356 542.521 347.356C525.324 347.356 511.325 352.489 510.822 358.894C510.121 359.739 509.558 360.704 509.168 361.752C508.757 360.943 508.542 360.107 508.542 359.252C508.542 352.056 523.755 346.222 542.521 346.222C561.287 346.222 576.498 352.056 576.498 359.252Z" fill="url(#paint2_radial)"/>
<path fill-rule="evenodd" clip-rule="evenodd" d="M576.498 358.102C576.498 358.957 576.283 359.795 575.872 360.604C575.48 359.558 574.92 358.595 574.22 357.75C573.723 351.352 559.72 346.222 542.521 346.222C525.32 346.222 511.319 351.352 510.82 357.75C510.123 358.595 509.56 359.558 509.168 360.604C508.757 359.795 508.542 358.957 508.542 358.102C508.542 350.916 523.755 345.09 542.521 345.09C561.287 345.09 576.498 350.916 576.498 358.102Z" fill="url(#paint3_radial)"/>
<path fill-rule="evenodd" clip-rule="evenodd" d="M576.498 359.51C576.498 358.655 576.283 357.818 575.874 357.008C575.482 358.056 574.92 359.021 574.22 359.866C573.717 366.271 559.716 371.404 542.521 371.404C525.324 371.404 511.325 366.271 510.822 359.866C510.121 359.021 509.558 358.056 509.168 357.008C508.757 357.818 508.542 358.653 508.542 359.51C508.542 366.705 523.755 372.538 542.521 372.538C561.287 372.538 576.498 366.705 576.498 359.51Z" fill="url(#paint4_radial)"/>
<path fill-rule="evenodd" clip-rule="evenodd" d="M576.498 360.642C576.498 359.787 576.283 358.951 575.874 358.142C575.482 359.19 574.92 360.153 574.22 361C573.717 367.404 559.716 372.538 542.521 372.538C525.324 372.538 511.325 367.404 510.822 361C510.121 360.153 509.558 359.19 509.168 358.142C508.757 358.951 508.542 359.787 508.542 360.642C508.542 367.838 523.755 373.67 542.521 373.67C561.287 373.67 576.498 367.838 576.498 360.642Z" fill="url(#paint5_radial)"/>
<path fill-rule="evenodd" clip-rule="evenodd" d="M576.498 359.443C576.498 358.582 576.24 357.742 575.751 356.933C575.371 357.852 574.856 358.701 574.234 359.459C574.21 365.483 560.021 370.364 542.521 370.364C525.022 370.364 510.832 365.483 510.808 359.459C510.184 358.701 509.671 357.852 509.292 356.933C508.8 357.742 508.542 358.582 508.542 359.443C508.542 366.048 523.755 371.405 542.521 371.405C561.287 371.405 576.498 366.048 576.498 359.443Z" fill="url(#paint6_radial)"/>
<path d="M575.367 359.25C575.367 365.821 560.095 371.146 541.955 371.146C523.815 371.146 509.676 365.821 509.676 359.25C509.676 352.68 523.815 347.356 541.955 347.356C560.095 347.356 575.367 352.68 575.367 359.25Z" fill="#A9782E"/>
<path fill-rule="evenodd" clip-rule="evenodd" d="M566.305 372.196C573.706 374.084 579.786 382.211 580.75 392.452C581.762 403.192 576.814 412.696 569.313 415.478C570.43 415.667 571.571 415.713 572.726 415.605C582.037 414.728 588.649 404.077 587.494 391.815C586.339 379.555 577.854 370.327 568.543 371.204C567.778 371.275 567.032 371.415 566.305 371.613V372.196Z" fill="#CCCCCC"/>
<path fill-rule="evenodd" clip-rule="evenodd" d="M566.305 373.698C572.531 376.713 577.305 383.877 578.13 392.607C579.015 401.951 575.118 410.374 568.855 414.195L568.957 415.683C569.184 415.673 569.412 415.657 569.641 415.635C570.186 415.585 570.722 415.502 571.251 415.393C570.752 415.363 570.259 415.311 569.768 415.237C578.317 412.449 583.951 402.916 582.794 392.141C581.691 381.859 574.75 373.702 566.305 371.814V373.698Z" fill="url(#paint7_linear)"/>
<path d="M727.786 457.77C727.786 461.393 725.967 465.248 721.818 469.172C717.661 473.104 711.432 476.83 703.406 480.04C687.374 486.454 664.954 490.51 639.987 490.51C615.02 490.51 592.6 486.454 576.568 480.04C568.542 476.83 562.311 473.104 558.154 469.172C554.007 465.248 552.188 461.393 552.188 457.77C552.188 454.146 554.007 450.291 558.154 446.367C562.311 442.435 568.542 438.709 576.568 435.499C592.6 429.085 615.02 425.027 639.987 425.027C664.954 425.027 687.374 429.085 703.406 435.499C711.432 438.709 717.661 442.435 721.818 446.367C725.967 450.291 727.786 454.146 727.786 457.77Z" fill="#D9D8D8"/>
<path d="M727.786 457.77C727.786 461.393 725.967 465.248 721.818 469.172C717.661 473.104 711.432 476.83 703.406 480.04C687.374 486.454 664.954 490.51 639.987 490.51C615.02 490.51 592.6 486.454 576.568 480.04C568.542 476.83 562.311 473.104 558.154 469.172C554.007 465.248 552.188 461.393 552.188 457.77C552.188 454.146 554.007 450.291 558.154 446.367C562.311 442.435 568.542 438.709 576.568 435.499C592.6 429.085 615.02 425.027 639.987 425.027C664.954 425.027 687.374 429.085 703.406 435.499C711.432 438.709 717.661 442.435 721.818 446.367C725.967 450.291 727.786 454.146 727.786 457.77Z" stroke="#8D8D8D" stroke-width="4"/>
<path d="M727.786 457.77C727.786 461.393 725.967 465.248 721.818 469.172C717.661 473.104 711.432 476.83 703.406 480.04C687.374 486.454 664.954 490.51 639.987 490.51C615.02 490.51 592.6 486.454 576.568 480.04C568.542 476.83 562.311 473.104 558.154 469.172C554.007 465.248 552.188 461.393 552.188 457.77C552.188 454.146 554.007 450.291 558.154 446.367C562.311 442.435 568.542 438.709 576.568 435.499C592.6 429.085 615.02 425.027 639.987 425.027C664.954 425.027 687.374 429.085 703.406 435.499C711.432 438.709 717.661 442.435 721.818 446.367C725.967 450.291 727.786 454.146 727.786 457.77Z" stroke="#8D8D8D" stroke-width="4"/>
<path d="M727.786 457.77C727.786 461.393 725.967 465.248 721.818 469.172C717.661 473.104 711.432 476.83 703.406 480.04C687.374 486.454 664.954 490.51 639.987 490.51C615.02 490.51 592.6 486.454 576.568 480.04C568.542 476.83 562.311 473.104 558.154 469.172C554.007 465.248 552.188 461.393 552.188 457.77C552.188 454.146 554.007 450.291 558.154 446.367C562.311 442.435 568.542 438.709 576.568 435.499C592.6 429.085 615.02 425.027 639.987 425.027C664.954 425.027 687.374 429.085 703.406 435.499C711.432 438.709 717.661 442.435 721.818 446.367C725.967 450.291 727.786 454.146 727.786 457.77Z" stroke="#8D8D8D" stroke-width="4"/>
<path d="M693.064 457.77C693.064 460.119 691.883 462.557 689.314 464.986C686.741 467.418 682.914 469.701 678.018 471.659C668.238 475.571 654.59 478.035 639.412 478.035C624.237 478.035 610.588 475.571 600.807 471.659C595.912 469.701 592.083 467.418 589.512 464.986C586.944 462.557 585.761 460.119 585.761 457.77C585.761 455.421 586.944 452.98 589.512 450.552C592.083 448.121 595.912 445.838 600.807 443.881C610.588 439.968 624.237 437.504 639.412 437.504C654.59 437.504 668.238 439.968 678.018 443.881C682.914 445.838 686.741 448.121 689.314 450.552C691.883 452.98 693.064 455.421 693.064 457.77Z" fill="#C2C2C2"/>
<path d="M693.064 457.77C693.064 460.119 691.883 462.557 689.314 464.986C686.741 467.418 682.914 469.701 678.018 471.659C668.238 475.571 654.59 478.035 639.412 478.035C624.237 478.035 610.588 475.571 600.807 471.659C595.912 469.701 592.083 467.418 589.512 464.986C586.944 462.557 585.761 460.119 585.761 457.77C585.761 455.421 586.944 452.98 589.512 450.552C592.083 448.121 595.912 445.838 600.807 443.881C610.588 439.968 624.237 437.504 639.412 437.504C654.59 437.504 668.238 439.968 678.018 443.881C682.914 445.838 686.741 448.121 689.314 450.552C691.883 452.98 693.064 455.421 693.064 457.77Z" stroke="#8D8D8D" stroke-width="2"/>
<path d="M693.064 457.77C693.064 460.119 691.883 462.557 689.314 464.986C686.741 467.418 682.914 469.701 678.018 471.659C668.238 475.571 654.59 478.035 639.412 478.035C624.237 478.035 610.588 475.571 600.807 471.659C595.912 469.701 592.083 467.418 589.512 464.986C586.944 462.557 585.761 460.119 585.761 457.77C585.761 455.421 586.944 452.98 589.512 450.552C592.083 448.121 595.912 445.838 600.807 443.881C610.588 439.968 624.237 437.504 639.412 437.504C654.59 437.504 668.238 439.968 678.018 443.881C682.914 445.838 686.741 448.121 689.314 450.552C691.883 452.98 693.064 455.421 693.064 457.77Z" stroke="#8D8D8D" stroke-width="2"/>
<path d="M693.064 457.77C693.064 460.119 691.883 462.557 689.314 464.986C686.741 467.418 682.914 469.701 678.018 471.659C668.238 475.571 654.59 478.035 639.412 478.035C624.237 478.035 610.588 475.571 600.807 471.659C595.912 469.701 592.083 467.418 589.512 464.986C586.944 462.557 585.761 460.119 585.761 457.77C585.761 455.421 586.944 452.98 589.512 450.552C592.083 448.121 595.912 445.838 600.807 443.881C610.588 439.968 624.237 437.504 639.412 437.504C654.59 437.504 668.238 439.968 678.018 443.881C682.914 445.838 686.741 448.121 689.314 450.552C691.883 452.98 693.064 455.421 693.064 457.77Z" stroke="#8D8D8D" stroke-width="2"/>
<path d="M643.428 485.586C663.703 485.586 680.139 478.861 680.139 470.565C680.139 462.268 663.703 455.543 643.428 455.543C623.154 455.543 606.718 462.268 606.718 470.565C606.718 478.861 623.154 485.586 643.428 485.586Z" fill="#A98D44"/>
<path d="M679.145 470.565C679.145 472.287 678.296 474.019 676.563 475.698C674.827 477.377 672.26 478.936 669.01 480.267C662.513 482.926 653.469 484.593 643.429 484.593C633.387 484.593 624.343 482.926 617.845 480.267C614.595 478.936 612.03 477.377 610.295 475.698C608.559 474.019 607.712 472.287 607.712 470.565C607.712 468.844 608.559 467.11 610.295 465.433C612.03 463.752 614.595 462.195 617.845 460.864C624.343 458.205 633.387 456.538 643.429 456.538C653.469 456.538 662.513 458.205 669.01 460.864C672.26 462.195 674.827 463.752 676.563 465.433C678.296 467.11 679.145 468.844 679.145 470.565Z" stroke="url(#paint8_linear)" stroke-opacity="0.18"/>
<path d="M633.677 465.559L636.405 467.096L635.363 469.584H631.991L630.949 467.096L633.677 465.559Z" fill="#342F2F"/>
<path d="M632.208 467.528L633.677 466.7L635.146 467.528L634.701 468.59H632.653L632.208 467.528Z" stroke="url(#paint9_linear)" stroke-opacity="0.18"/>
<path d="M627.94 475.573L630.423 476.685V478.91L627.94 480.024L625.457 478.91V476.685L627.94 475.573Z" fill="#342F2F"/>
<path d="M626.451 477.329L627.94 476.663L629.429 477.329V478.266L627.94 478.934L626.451 478.266V477.329Z" stroke="url(#paint10_linear)" stroke-opacity="0.18"/>
<path d="M652.034 473.347L654.901 475.573L652.034 477.798L649.165 475.573L652.034 473.347Z" fill="#342F2F"/>
<path d="M650.786 475.573L652.033 474.606L653.277 475.573L652.033 476.539L650.786 475.573Z" stroke="url(#paint11_linear)" stroke-opacity="0.18"/>
<path d="M630.235 464.444L632.962 462.907L631.921 460.419H628.549L627.507 462.907L630.235 464.444Z" fill="#342F2F"/>
<path d="M628.766 462.475L630.235 463.305L631.704 462.475L631.259 461.413H629.211L628.766 462.475Z" stroke="url(#paint12_linear)" stroke-opacity="0.18"/>
<path d="M650.884 463.333L653.369 462.219V459.995L650.884 458.881L648.4 459.995V462.219L650.884 463.333Z" fill="#342F2F"/>
<path d="M649.394 461.576L650.883 462.243L652.374 461.576V460.639L650.883 459.971L649.394 460.639V461.576Z" stroke="url(#paint13_linear)" stroke-opacity="0.18"/>
<path d="M663.505 466.67L666.372 464.446L663.505 462.221L660.636 464.446L663.505 466.67Z" fill="#342F2F"/>
<path d="M662.259 464.447L663.505 465.413L664.75 464.447L663.505 463.478L662.259 464.447Z" stroke="url(#paint14_linear)" stroke-opacity="0.18"/>
<path d="M613.601 471.122C633.876 471.122 650.312 464.397 650.312 456.101C650.312 447.805 633.876 441.079 613.601 441.079C593.326 441.079 576.891 447.805 576.891 456.101C576.891 464.397 593.326 471.122 613.601 471.122Z" fill="#A98D44"/>
<path d="M648.82 456.101C648.82 457.644 648.063 459.257 646.391 460.874C644.715 462.497 642.21 464.025 638.995 465.342C632.571 467.969 623.595 469.63 613.6 469.63C603.608 469.63 594.632 467.969 588.208 465.342C584.991 464.025 582.488 462.497 580.812 460.874C579.14 459.257 578.381 457.644 578.381 456.101C578.381 454.555 579.14 452.942 580.812 451.325C582.488 449.704 584.991 448.175 588.208 446.858C594.632 444.231 603.608 442.57 613.6 442.57C623.595 442.57 632.571 444.231 638.995 446.858C642.21 448.175 644.715 449.704 646.391 451.325C648.063 452.942 648.82 454.555 648.82 456.101Z" stroke="url(#paint15_linear)" stroke-opacity="0.18" stroke-width="1.5"/>
<path d="M603.851 451.093L606.578 452.63L605.537 455.118H602.165L601.123 452.63L603.851 451.093Z" fill="#342F2F"/>
<path d="M603.009 453.278L603.85 452.805L604.689 453.278L604.544 453.626H603.156L603.009 453.278Z" stroke="url(#paint16_linear)" stroke-opacity="0.18" stroke-width="1.5"/>
<path d="M598.112 461.107L600.597 462.219V464.445L598.112 465.559L595.629 464.445V462.219L598.112 461.107Z" fill="#342F2F"/>
<path d="M597.12 463.186L598.112 462.742L599.106 463.186V463.478L598.112 463.924L597.12 463.478V463.186Z" stroke="url(#paint17_linear)" stroke-opacity="0.18" stroke-width="1.5"/>
<path d="M622.205 458.881L625.074 461.107L622.205 463.333L619.338 461.107L622.205 458.881Z" fill="#342F2F"/>
<path d="M621.771 461.107L622.206 460.769L622.641 461.107L622.206 461.445L621.771 461.107Z" stroke="url(#paint18_linear)" stroke-opacity="0.18" stroke-width="1.5"/>
<path d="M600.409 449.981L603.137 448.443L602.095 445.955H598.723L597.682 448.443L600.409 449.981Z" fill="#342F2F"/>
<path d="M599.568 447.795L600.409 448.268L601.248 447.795L601.103 447.447H599.715L599.568 447.795Z" stroke="url(#paint19_linear)" stroke-opacity="0.18" stroke-width="1.5"/>
<path d="M621.057 448.867L623.541 447.755V445.529L621.057 444.416L618.574 445.529V447.755L621.057 448.867Z" fill="#342F2F"/>
<path d="M620.065 446.788L621.057 447.232L622.05 446.788V446.496L621.057 446.051L620.065 446.496V446.788Z" stroke="url(#paint20_linear)" stroke-opacity="0.18" stroke-width="1.5"/>
<path d="M633.677 452.206L636.546 449.981L633.677 447.755L630.811 449.981L633.677 452.206Z" fill="#342F2F"/>
<path d="M633.24 449.981L633.676 450.319L634.111 449.981L633.676 449.643L633.24 449.981Z" stroke="url(#paint21_linear)" stroke-opacity="0.18" stroke-width="1.5"/>
<path d="M658.34 463.334C678.615 463.334 695.051 456.608 695.051 448.312C695.051 440.016 678.615 433.291 658.34 433.291C638.066 433.291 621.63 440.016 621.63 448.312C621.63 456.608 638.066 463.334 658.34 463.334Z" fill="#A98D44"/>
<path d="M693.561 448.312C693.561 449.855 692.804 451.468 691.132 453.086C689.456 454.709 686.951 456.236 683.736 457.553C677.312 460.18 668.334 461.841 658.342 461.841C648.349 461.841 639.373 460.18 632.949 457.553C629.733 456.236 627.23 454.709 625.554 453.086C623.882 451.468 623.122 449.855 623.122 448.312C623.122 446.767 623.882 445.154 625.554 443.536C627.23 441.915 629.733 440.386 632.949 439.069C639.373 436.442 648.349 434.781 658.342 434.781C668.334 434.781 677.312 436.442 683.736 439.069C686.951 440.386 689.456 441.915 691.132 443.536C692.804 445.154 693.561 446.767 693.561 448.312Z" stroke="url(#paint22_linear)" stroke-opacity="0.18" stroke-width="1.5"/>
<path d="M648.592 443.304L651.32 444.841L650.278 447.329H646.906L645.864 444.841L648.592 443.304Z" fill="#342F2F"/>
<path d="M647.75 445.489L648.591 445.016L649.43 445.489L649.285 445.838H647.897L647.75 445.489Z" stroke="url(#paint23_linear)" stroke-opacity="0.18" stroke-width="1.5"/>
<path d="M642.853 453.318L645.338 454.43V456.656L642.853 457.77L640.37 456.656V454.43L642.853 453.318Z" fill="#342F2F"/>
<path d="M641.861 455.397L642.853 454.953L643.847 455.397V455.689L642.853 456.135L641.861 455.689V455.397Z" stroke="url(#paint24_linear)" stroke-opacity="0.18" stroke-width="1.5"/>
<path d="M666.947 451.093L669.816 453.318L666.947 455.544L664.078 453.318L666.947 451.093Z" fill="#342F2F"/>
<path d="M666.511 453.318L666.946 452.98L667.382 453.318L666.946 453.656L666.511 453.318Z" stroke="url(#paint25_linear)" stroke-opacity="0.18" stroke-width="1.5"/>
<path d="M645.151 442.192L647.878 440.654L646.836 438.166H643.465L642.423 440.654L645.151 442.192Z" fill="#342F2F"/>
<path d="M644.31 440.006L645.151 440.479L645.99 440.006L645.844 439.658H644.457L644.31 440.006Z" stroke="url(#paint26_linear)" stroke-opacity="0.18" stroke-width="1.5"/>
<path d="M665.798 441.078L668.281 439.966V437.741L665.798 436.627L663.314 437.741V439.966L665.798 441.078Z" fill="#342F2F"/>
<path d="M664.806 439L665.798 439.443L666.79 439V438.707L665.798 438.262L664.806 438.707V439Z" stroke="url(#paint27_linear)" stroke-opacity="0.18" stroke-width="1.5"/>
<path d="M678.418 444.418L681.287 442.192L678.418 439.966L675.549 442.192L678.418 444.418Z" fill="#342F2F"/>
<path d="M677.98 442.192L678.416 442.53L678.851 442.192L678.416 441.854L677.98 442.192Z" stroke="url(#paint28_linear)" stroke-opacity="0.18" stroke-width="1.5"/>
<path d="M624.08 160.059C665.252 160.059 698.631 125.662 698.631 83.231C698.631 40.7999 665.252 6.40259 624.08 6.40259C582.906 6.40259 549.529 40.7999 549.529 83.231C549.529 125.662 582.906 160.059 624.08 160.059Z" fill="white" stroke="#F49B49" stroke-width="4"/>
<path d="M624.077 87.4631C626.346 87.4631 628.185 85.5684 628.185 83.2312C628.185 80.8937 626.346 78.999 624.077 78.999C621.811 78.999 619.972 80.8937 619.972 83.2312C619.972 85.5684 621.811 87.4631 624.077 87.4631Z" fill="#929292"/>
<path d="M628.183 82.0967L656.06 106.393C657.37 107.535 657.533 109.555 656.426 110.905C655.318 112.254 653.358 112.423 652.048 111.282L624.17 86.9854C622.86 85.8437 622.695 83.8239 623.805 82.474C624.912 81.1241 626.872 80.9552 628.183 82.0967Z" fill="#929292"/>
<path d="M670.512 50.1251L627.128 84.1078C625.762 85.1777 623.813 84.9038 622.774 83.4962C621.736 82.0886 622.002 80.0804 623.368 79.0105L666.755 45.0278C668.121 43.9579 670.069 44.2318 671.107 45.6394C672.145 47.047 671.878 49.0552 670.512 50.1251Z" fill="#929292"/>
<defs>
<filter id="filter0_d" x="181.479" y="190.389" width="363.867" height="288.827" filterUnits="userSpaceOnUse" color-interpolation-filters="sRGB">
<feFlood flood-opacity="0" result="BackgroundImageFix"/>
<feColorMatrix in="SourceAlpha" type="matrix" values="0 0 0 0 0 0 0 0 0 0 0 0 0 0 0 0 0 0 127 0"/>
<feOffset dx="11" dy="8"/>
<feGaussianBlur stdDeviation="5.5"/>
<feColorMatrix type="matrix" values="0 0 0 0 0 0 0 0 0 0 0 0 0 0 0 0 0 0 0.25 0"/>
<feBlend mode="normal" in2="BackgroundImageFix" result="effect1_dropShadow"/>
<feBlend mode="normal" in="SourceGraphic" in2="effect1_dropShadow" result="shape"/>
</filter>
<linearGradient id="paint0_linear" x1="508.542" y1="415.593" x2="576.498" y2="415.593" gradientUnits="userSpaceOnUse">
<stop stop-color="#AF5C56"/>
<stop offset="1" stop-color="#EDB1AD"/>
</linearGradient>
<linearGradient id="paint1_linear" x1="508.542" y1="388.898" x2="576.498" y2="388.898" gradientUnits="userSpaceOnUse">
<stop stop-color="#AF5C56"/>
<stop offset="1" stop-color="#EDB1AD"/>
</linearGradient>
<radialGradient id="paint2_radial" cx="0" cy="0" r="1" gradientUnits="userSpaceOnUse" gradientTransform="translate(542.521 360.827) rotate(-91.6133) scale(60.3453 140.43)">
<stop stop-color="#959595"/>
<stop offset="1" stop-color="#CDC5C5"/>
</radialGradient>
<radialGradient id="paint3_radial" cx="0" cy="0" r="1" gradientUnits="userSpaceOnUse" gradientTransform="translate(542.521 359.679) rotate(-91.6148) scale(60.2876 140.43)">
<stop stop-color="#959595"/>
<stop offset="1" stop-color="#CDC5C5"/>
</radialGradient>
<radialGradient id="paint4_radial" cx="0" cy="0" r="1" gradientUnits="userSpaceOnUse" gradientTransform="translate(542.521 357.933) rotate(91.6133) scale(60.3455 140.43)">
<stop stop-color="white"/>
<stop offset="1" stop-color="#CDC5C5"/>
</radialGradient>
<radialGradient id="paint5_radial" cx="0" cy="0" r="1" gradientUnits="userSpaceOnUse" gradientTransform="translate(542.521 359.067) rotate(91.6133) scale(60.3451 140.43)">
<stop stop-color="white"/>
<stop offset="1" stop-color="#CDC5C5"/>
</radialGradient>
<radialGradient id="paint6_radial" cx="0" cy="0" r="1" gradientUnits="userSpaceOnUse" gradientTransform="translate(542.521 357.794) rotate(91.731) scale(56.2446 140.421)">
<stop stop-color="white"/>
<stop offset="1" stop-color="#CDC5C5"/>
</radialGradient>
<linearGradient id="paint7_linear" x1="574.625" y1="371.814" x2="574.625" y2="415.683" gradientUnits="userSpaceOnUse">
<stop stop-color="#6A5C5C"/>
<stop offset="1" stop-color="#413838"/>
</linearGradient>
<linearGradient id="paint8_linear" x1="643.429" y1="455.544" x2="643.429" y2="485.587" gradientUnits="userSpaceOnUse">
<stop stop-opacity="0"/>
<stop offset="1"/>
</linearGradient>
<linearGradient id="paint9_linear" x1="633.677" y1="465.559" x2="633.677" y2="470.01" gradientUnits="userSpaceOnUse">
<stop stop-opacity="0"/>
<stop offset="1"/>
</linearGradient>
<linearGradient id="paint10_linear" x1="627.94" y1="475.573" x2="627.94" y2="480.024" gradientUnits="userSpaceOnUse">
<stop stop-opacity="0"/>
<stop offset="1"/>
</linearGradient>
<linearGradient id="paint11_linear" x1="652.033" y1="473.347" x2="652.033" y2="477.798" gradientUnits="userSpaceOnUse">
<stop stop-opacity="0"/>
<stop offset="1"/>
</linearGradient>
<linearGradient id="paint12_linear" x1="630.235" y1="464.445" x2="630.235" y2="459.995" gradientUnits="userSpaceOnUse">
<stop stop-opacity="0"/>
<stop offset="1"/>
</linearGradient>
<linearGradient id="paint13_linear" x1="650.883" y1="463.333" x2="650.883" y2="458.881" gradientUnits="userSpaceOnUse">
<stop stop-opacity="0"/>
<stop offset="1"/>
</linearGradient>
<linearGradient id="paint14_linear" x1="663.505" y1="466.67" x2="663.505" y2="462.221" gradientUnits="userSpaceOnUse">
<stop stop-opacity="0"/>
<stop offset="1"/>
</linearGradient>
<linearGradient id="paint15_linear" x1="613.6" y1="441.078" x2="613.6" y2="471.122" gradientUnits="userSpaceOnUse">
<stop stop-opacity="0"/>
<stop offset="1"/>
</linearGradient>
<linearGradient id="paint16_linear" x1="603.85" y1="451.092" x2="603.85" y2="455.544" gradientUnits="userSpaceOnUse">
<stop stop-opacity="0"/>
<stop offset="1"/>
</linearGradient>
<linearGradient id="paint17_linear" x1="598.112" y1="461.107" x2="598.112" y2="465.559" gradientUnits="userSpaceOnUse">
<stop stop-opacity="0"/>
<stop offset="1"/>
</linearGradient>
<linearGradient id="paint18_linear" x1="622.206" y1="458.881" x2="622.206" y2="463.333" gradientUnits="userSpaceOnUse">
<stop stop-opacity="0"/>
<stop offset="1"/>
</linearGradient>
<linearGradient id="paint19_linear" x1="600.409" y1="449.981" x2="600.409" y2="445.529" gradientUnits="userSpaceOnUse">
<stop stop-opacity="0"/>
<stop offset="1"/>
</linearGradient>
<linearGradient id="paint20_linear" x1="621.057" y1="448.867" x2="621.057" y2="444.416" gradientUnits="userSpaceOnUse">
<stop stop-opacity="0"/>
<stop offset="1"/>
</linearGradient>
<linearGradient id="paint21_linear" x1="633.676" y1="452.206" x2="633.676" y2="447.755" gradientUnits="userSpaceOnUse">
<stop stop-opacity="0"/>
<stop offset="1"/>
</linearGradient>
<linearGradient id="paint22_linear" x1="658.342" y1="433.289" x2="658.342" y2="463.333" gradientUnits="userSpaceOnUse">
<stop stop-opacity="0"/>
<stop offset="1"/>
</linearGradient>
<linearGradient id="paint23_linear" x1="648.591" y1="443.304" x2="648.591" y2="447.755" gradientUnits="userSpaceOnUse">
<stop stop-opacity="0"/>
<stop offset="1"/>
</linearGradient>
<linearGradient id="paint24_linear" x1="642.853" y1="453.318" x2="642.853" y2="457.77" gradientUnits="userSpaceOnUse">
<stop stop-opacity="0"/>
<stop offset="1"/>
</linearGradient>
<linearGradient id="paint25_linear" x1="666.946" y1="451.092" x2="666.946" y2="455.544" gradientUnits="userSpaceOnUse">
<stop stop-opacity="0"/>
<stop offset="1"/>
</linearGradient>
<linearGradient id="paint26_linear" x1="645.151" y1="442.192" x2="645.151" y2="437.741" gradientUnits="userSpaceOnUse">
<stop stop-opacity="0"/>
<stop offset="1"/>
</linearGradient>
<linearGradient id="paint27_linear" x1="665.798" y1="441.078" x2="665.798" y2="436.627" gradientUnits="userSpaceOnUse">
<stop stop-opacity="0"/>
<stop offset="1"/>
</linearGradient>
<linearGradient id="paint28_linear" x1="678.416" y1="444.418" x2="678.416" y2="439.966" gradientUnits="userSpaceOnUse">
<stop stop-opacity="0"/>
<stop offset="1"/>
</linearGradient>
</defs>
</svg>
