<svg width="119" height="62" viewBox="0 0 119 62" fill="none" xmlns="http://www.w3.org/2000/svg">
<g clip-path="url(#clip0)">
<g filter="url(#filter0_d)">
<path d="M100.479 4.19392L12.9517 13.1787C9.78183 13.504 7.47604 16.3365 7.80155 19.5051L10.6012 46.7571C10.9267 49.9257 13.7602 52.2306 16.9301 51.9052L104.458 42.9205C107.628 42.5951 109.933 39.7627 109.608 36.5941L106.808 9.34203C106.483 6.17342 103.649 3.86854 100.479 4.19392Z" fill="#E9FDBF"/>
<path d="M100.516 4.55252L12.9886 13.5373C10.0169 13.8423 7.85518 16.4977 8.16034 19.4683L10.96 46.7203C11.2651 49.6909 13.9216 51.8517 16.8933 51.5467L104.421 42.5619C107.393 42.2569 109.554 39.6015 109.249 36.6309L106.45 9.37887C106.144 6.4083 103.488 4.24747 100.516 4.55252Z" stroke="black" stroke-opacity="0.1"/>
</g>
<g filter="url(#filter1_d)">
<path d="M5.07004 17.0547C3.81611 17.8502 0.984744 19.5779 1.81425 24.1945C2.28055 26.7897 4.07001 28.2255 5.96771 28.8858V26.5899C5.18135 26.0582 4.55663 25.0582 4.1494 23.1403C3.57815 20.4501 5.74841 19.1227 6.90495 18.7953L38.0568 13.7847C38.5767 13.6163 39.7274 13.7536 40.1709 15.65C40.6144 17.5466 39.4254 18.1732 38.7755 18.2495L17.9795 21.5944C17.4301 21.9372 17.2863 22.5261 17.4214 22.9565C17.5988 23.5217 17.9755 23.7156 18.5073 23.7997L39.7242 20.3871C40.1052 20.0714 43.3975 18.524 42.4042 15.0364C41.6096 12.2463 38.5897 11.5502 37.179 11.5509L6.27972 16.5209C5.94294 16.575 5.54027 16.7565 5.07004 17.0547Z" fill="#FAFF00"/>
</g>
<path d="M37.5587 36.2059C37.3515 36.2285 37.195 36.1973 37.0895 36.1125C36.9839 36.0277 36.9198 35.8817 36.8973 35.6745L35.8724 26.2679C35.8547 26.1055 35.9145 25.9773 36.0516 25.883C36.188 25.7831 36.4103 25.7164 36.7184 25.6829L37.2225 25.628C37.5305 25.5945 37.762 25.6118 37.9168 25.6799C38.071 25.7425 38.1569 25.8549 38.1746 26.0173L39.0512 34.0633L42.3783 33.7011C42.5352 33.684 42.6536 33.7306 42.7337 33.8409C42.8193 33.9505 42.8761 34.1342 42.9042 34.3917L42.9554 34.8621C42.9841 35.1252 42.9684 35.3196 42.9084 35.445C42.854 35.57 42.7484 35.641 42.5916 35.658L37.5587 36.2059ZM47.6969 35.2297C46.3862 35.3724 45.3706 35.1289 44.6502 34.4991C43.9292 33.8637 43.5007 32.9217 43.3646 31.6731C43.2115 30.2677 43.4214 29.2024 43.9942 28.4772C44.567 27.752 45.4191 27.3278 46.5505 27.2046C47.3012 27.1229 47.9331 27.2269 48.4464 27.5166C48.9654 27.8058 49.3654 28.2268 49.6467 28.7797C49.9336 29.332 50.1167 29.9721 50.196 30.7C50.2051 30.784 50.167 30.9014 50.0814 31.0524C50.0014 31.2028 49.9059 31.3406 49.7948 31.4661C49.6838 31.5914 49.5947 31.6578 49.5275 31.6651L45.7214 32.0794C45.834 32.6451 46.0463 33.0327 46.3582 33.2424C46.6751 33.4458 47.0912 33.5195 47.6065 33.4634C47.8866 33.4329 48.1353 33.3747 48.3526 33.2887C48.575 33.1965 48.8092 33.0832 49.0552 32.9488C49.2042 32.8589 49.3066 32.811 49.3626 32.8048C49.4634 32.7939 49.5806 32.8548 49.7141 32.9875C49.8525 33.1141 49.9738 33.2652 50.078 33.4408C50.1877 33.6158 50.2481 33.7537 50.2591 33.8545C50.2841 34.084 50.1487 34.2972 49.8527 34.4937C49.5622 34.6896 49.2088 34.8527 48.7923 34.983C48.3813 35.1127 48.0162 35.195 47.6969 35.2297ZM47.9811 30.3462C47.931 29.8871 47.8015 29.5301 47.5923 29.2753C47.3826 29.0148 47.0984 28.9041 46.74 28.9432C46.0006 29.0236 45.6077 29.5791 45.5612 30.6097L47.9811 30.3462ZM54.1749 34.5245C53.7884 34.5666 53.4001 34.5663 53.0101 34.5239C52.62 34.4814 52.2904 34.3954 52.0213 34.2661C51.7578 34.1361 51.615 33.9704 51.593 33.7688C51.5796 33.6456 51.6077 33.4868 51.6771 33.2922C51.7466 33.0977 51.8356 32.9265 51.9443 32.7787C52.0578 32.6247 52.1623 32.5426 52.2575 32.5322C52.3079 32.5267 52.4214 32.554 52.598 32.6141C52.8038 32.6823 52.9993 32.7347 53.1847 32.7712C53.37 32.8076 53.5775 32.8134 53.8072 32.7884C54.0928 32.7573 54.3027 32.6806 54.4368 32.5584C54.5708 32.4361 54.6265 32.2715 54.6039 32.0643C54.5869 31.9075 54.5281 31.7836 54.4275 31.6926C54.3318 31.5953 54.2132 31.5204 54.0714 31.4679C53.9297 31.4153 53.7303 31.3549 53.4735 31.2865L53.2198 31.2207C52.8871 31.1323 52.5918 31.0228 52.3339 30.8922C52.076 30.7616 51.8468 30.5571 51.6464 30.2787C51.4454 29.9946 51.3199 29.623 51.2699 29.1638C51.2144 28.6544 51.2761 28.2057 51.4548 27.818C51.6386 27.4241 51.9246 27.1096 52.3128 26.8747C52.7003 26.6343 53.1713 26.4839 53.7259 26.4235C54.0451 26.3888 54.3818 26.3833 54.7358 26.407C55.0898 26.4308 55.3914 26.4943 55.6407 26.5975C55.8956 26.7001 56.0338 26.8493 56.0551 27.0452C56.0673 27.1573 56.0473 27.3124 55.9952 27.5107C55.9488 27.7084 55.8831 27.8855 55.7981 28.0421C55.7131 28.1986 55.6258 28.2818 55.5362 28.2915C55.5082 28.2945 55.4271 28.2779 55.2927 28.2416C55.1112 28.1876 54.937 28.1499 54.7703 28.1284C54.6086 28.1008 54.4241 28.0982 54.2169 28.1207C53.6903 28.178 53.446 28.3803 53.4838 28.7274C53.5009 28.8842 53.5631 29.0134 53.6706 29.115C53.7836 29.216 53.9168 29.295 54.0704 29.3519C54.224 29.4088 54.4379 29.4734 54.7121 29.5455C55.028 29.6358 55.2242 29.6937 55.3007 29.7194C55.7141 29.8727 56.0562 30.0989 56.3269 30.398C56.6024 30.691 56.7695 31.1062 56.8281 31.6437C56.8836 32.1532 56.8176 32.6136 56.63 33.025C56.4425 33.4364 56.139 33.7725 55.7197 34.0334C55.3003 34.2943 54.7854 34.4581 54.1749 34.5245ZM60.342 33.8532C59.9555 33.8952 59.5672 33.895 59.1771 33.8525C58.7871 33.81 58.4575 33.7241 58.1884 33.5948C57.9248 33.4648 57.7821 33.299 57.7601 33.0975C57.7467 32.9742 57.7748 32.8154 57.8442 32.6209C57.9137 32.4263 58.0028 32.2552 58.1113 32.1074C58.2249 31.9534 58.3294 31.8712 58.4246 31.8608C58.475 31.8554 58.5885 31.8827 58.7651 31.9427C58.9709 32.011 59.1664 32.0634 59.3518 32.0998C59.5371 32.1363 59.7446 32.1421 59.9743 32.1171C60.26 32.086 60.4698 32.0093 60.6039 31.8871C60.7379 31.7648 60.7936 31.6002 60.771 31.393C60.754 31.2362 60.6952 31.1123 60.5945 31.0212C60.4989 30.924 60.3803 30.8491 60.2385 30.7965C60.0968 30.744 59.8974 30.6836 59.6406 30.6151L59.3869 30.5493C59.0542 30.4609 58.7589 30.3514 58.5009 30.2209C58.243 30.0903 58.0138 29.8858 57.8135 29.6073C57.6125 29.3232 57.487 28.9517 57.437 28.4925C57.3815 27.983 57.4431 27.5344 57.6219 27.1467C57.8057 26.7527 58.0917 26.4383 58.4799 26.2034C58.8674 25.9629 59.3384 25.8125 59.893 25.7522C60.2122 25.7174 60.5489 25.7119 60.9029 25.7357C61.2569 25.7595 61.5585 25.823 61.8078 25.9261C62.0627 26.0287 62.2008 26.178 62.2222 26.3739C62.2344 26.4859 62.2144 26.641 62.1623 26.8393C62.1159 27.037 62.0502 27.2142 61.9652 27.3707C61.8803 27.5273 61.7929 27.6105 61.7033 27.6202C61.6753 27.6232 61.5941 27.6066 61.4598 27.5702C61.2783 27.5163 61.1041 27.4786 60.9374 27.4571C60.7756 27.4294 60.5912 27.4268 60.384 27.4494C59.8574 27.5067 59.613 27.7089 59.6508 28.0561C59.6679 28.2129 59.7302 28.3421 59.8376 28.4436C59.9507 28.5446 60.0839 28.6236 60.2375 28.6806C60.3911 28.7375 60.605 28.802 60.8792 28.8742C61.1951 28.9644 61.3913 29.0224 61.4678 29.0481C61.8813 29.2013 62.2233 29.4276 62.4939 29.7267C62.7695 30.0196 62.9366 30.4348 62.9952 30.9724C63.0507 31.4819 62.9846 31.9423 62.7971 32.3537C62.6095 32.765 62.3061 33.1011 61.8867 33.3621C61.4674 33.623 60.9525 33.7867 60.342 33.8532ZM67.8282 33.0383C66.6463 33.1669 65.7066 32.9179 65.0092 32.2913C64.3174 31.6641 63.9005 30.6982 63.7584 29.3936C63.6169 28.0946 63.8166 27.0672 64.3578 26.3114C64.9045 25.555 65.7688 25.1125 66.9507 24.9839C68.1326 24.8552 69.0663 25.102 69.7518 25.7242C70.4424 26.3402 70.8588 27.3005 71.0009 28.6052C71.1431 29.9098 70.9439 30.9427 70.4033 31.7041C69.8685 32.4649 69.01 32.9096 67.8282 33.0383ZM67.6369 31.2829C68.1074 31.2317 68.4312 31.0038 68.6082 30.5993C68.7908 30.1942 68.8405 29.6108 68.7576 28.8494C68.6752 28.0935 68.5013 27.5374 68.2357 27.181C67.9758 26.8241 67.6106 26.6712 67.1401 26.7224C66.2103 26.8236 65.828 27.6329 65.9933 29.1503C66.0757 29.9062 66.2499 30.4651 66.5161 30.827C66.7872 31.1828 67.1608 31.3347 67.6369 31.2829ZM73.8831 32.2771C73.2895 32.3417 72.9758 32.2173 72.9419 31.9037L72.4255 27.1668C72.3476 26.4501 72.2351 25.859 72.0878 25.3934C72.0434 25.2453 72.0178 25.1405 72.011 25.0788C71.9989 24.9669 72.0927 24.866 72.2928 24.7763C72.4976 24.6803 72.7299 24.6012 72.9895 24.5389C73.2549 24.4761 73.4684 24.4358 73.6307 24.4181C73.8045 24.3992 73.9321 24.4505 74.0129 24.5719C74.1002 24.6928 74.1846 24.8734 74.2675 25.1137L74.3418 25.3265C74.543 24.9873 74.8279 24.6872 75.1957 24.4262C75.5693 24.1589 75.9825 24.0006 76.4369 23.9512C77.187 23.8695 77.7632 24.0052 78.1642 24.358C78.5652 24.7109 78.8111 25.2989 78.9006 26.122L79.453 31.1948C79.4876 31.5085 79.202 31.6981 78.5969 31.764L78.1851 31.8088C77.5916 31.8735 77.2778 31.749 77.2432 31.4354L76.7276 26.6985C76.6944 26.3962 76.5963 26.1745 76.434 26.0336C76.2768 25.8921 76.0388 25.8387 75.7193 25.8734C75.4503 25.9027 75.2224 26.0182 75.0342 26.2199C74.8466 26.4217 74.7118 26.6376 74.6288 26.8675L75.151 31.6632C75.1856 31.9767 74.9 32.1664 74.2949 32.2323L73.8831 32.2771ZM83.3303 31.3507C82.9437 31.3928 82.5549 31.3926 82.1648 31.3501C81.7753 31.3075 81.4457 31.2216 81.176 31.0923C80.9128 30.9623 80.7699 30.7966 80.7483 30.595C80.7346 30.4718 80.7627 30.3129 80.832 30.1184C80.9019 29.9239 80.9906 29.7528 81.0995 29.605C81.2128 29.4509 81.3174 29.3687 81.4126 29.3584C81.463 29.3529 81.5763 29.3802 81.753 29.4403C81.9585 29.5085 82.1547 29.5609 82.34 29.5974C82.5254 29.6339 82.7324 29.6396 82.9624 29.6146C83.248 29.5835 83.4579 29.5069 83.592 29.3846C83.7262 29.2624 83.7817 29.0977 83.7587 28.8905C83.7421 28.7337 83.6829 28.6098 83.5827 28.5188C83.4868 28.4216 83.3685 28.3467 83.2264 28.2941C83.085 28.2416 82.8853 28.1811 82.6285 28.1127L82.3746 28.0469C82.0422 27.9584 81.7472 27.8489 81.489 27.7184C81.2308 27.5878 81.0015 27.3834 80.8017 27.1049C80.6005 26.8208 80.475 26.4492 80.4252 25.9901C80.3697 25.4805 80.431 25.0319 80.6098 24.6442C80.7937 24.2503 81.0793 23.9359 81.4681 23.701C81.8554 23.4605 82.3263 23.31 82.8809 23.2497C83.2004 23.2149 83.5365 23.2095 83.8906 23.2333C84.2447 23.257 84.5462 23.3205 84.7958 23.4236C85.0503 23.5262 85.1888 23.6755 85.2105 23.8715C85.222 23.9835 85.2025 24.1386 85.1506 24.3369C85.1037 24.5346 85.0381 24.7117 84.953 24.8683C84.8679 25.0248 84.7806 25.108 84.6912 25.1178C84.6631 25.1208 84.5823 25.1041 84.4474 25.0677C84.2664 25.0139 84.0918 24.9762 83.9252 24.9546C83.7637 24.9269 83.5791 24.9243 83.3721 24.9469C82.8456 25.0042 82.6011 25.2064 82.6386 25.5536C82.6559 25.7104 82.7179 25.8396 82.8254 25.9412C82.9386 26.0422 83.0721 26.1212 83.2257 26.1781C83.3793 26.2351 83.5928 26.2996 83.8668 26.3717C84.1827 26.4619 84.3796 26.5199 84.4561 26.5456C84.8693 26.6989 85.2112 26.9251 85.4816 27.2243C85.7571 27.5172 85.9245 27.9324 85.9829 28.4699C86.0384 28.9794 85.9728 29.4399 85.7853 29.8512C85.5977 30.2625 85.2941 30.5987 84.8744 30.8596C84.4553 31.1206 83.9404 31.2843 83.3303 31.3507Z" fill="#EEAA43"/>
<path d="M36.0203 37.2232L86.6341 31.7134L86.6796 32.1333L36.066 37.6431L36.0203 37.2232Z" fill="#EEAA43"/>
</g>
<defs>
<filter id="filter0_d" x="1.63159" y="-0.976196" width="120.146" height="66.0516" filterUnits="userSpaceOnUse" color-interpolation-filters="sRGB">
<feFlood flood-opacity="0" result="BackgroundImageFix"/>
<feColorMatrix in="SourceAlpha" type="matrix" values="0 0 0 0 0 0 0 0 0 0 0 0 0 0 0 0 0 0 127 0"/>
<feOffset dx="3" dy="4"/>
<feGaussianBlur stdDeviation="4.5"/>
<feColorMatrix type="matrix" values="0 0 0 0 0 0 0 0 0 0 0 0 0 0 0 0 0 0 0.25 0"/>
<feBlend mode="normal" in2="BackgroundImageFix" result="effect1_dropShadow"/>
<feBlend mode="normal" in="SourceGraphic" in2="effect1_dropShadow" result="shape"/>
</filter>
<filter id="filter1_d" x="-0.335449" y="9.5509" width="48.9256" height="25.3349" filterUnits="userSpaceOnUse" color-interpolation-filters="sRGB">
<feFlood flood-opacity="0" result="BackgroundImageFix"/>
<feColorMatrix in="SourceAlpha" type="matrix" values="0 0 0 0 0 0 0 0 0 0 0 0 0 0 0 0 0 0 127 0"/>
<feOffset dx="2" dy="2"/>
<feGaussianBlur stdDeviation="2"/>
<feColorMatrix type="matrix" values="0 0 0 0 0 0 0 0 0 0 0 0 0 0 0 0 0 0 0.25 0"/>
<feBlend mode="normal" in2="BackgroundImageFix" result="effect1_dropShadow"/>
<feBlend mode="normal" in="SourceGraphic" in2="effect1_dropShadow" result="shape"/>
</filter>
<clipPath id="clip0">
<rect width="119" height="62" fill="white"/>
</clipPath>
</defs>
</svg>
