<svg width="750" height="725" viewBox="0 0 750 725" fill="none" xmlns="http://www.w3.org/2000/svg">
<path d="M715.872 140.706H110.758C93.0525 140.706 78.6992 155.048 78.6992 172.74V519.489C78.6992 537.181 93.0525 551.524 110.758 551.524H715.872C733.578 551.524 747.931 537.181 747.931 519.489V172.74C747.931 155.048 733.578 140.706 715.872 140.706Z" fill="#272727"/>
<path d="M267.113 181.787H130.11C125.684 181.787 122.096 185.373 122.096 189.796V198.884C122.096 203.307 125.684 206.893 130.11 206.893H267.113C271.54 206.893 275.128 203.307 275.128 198.884V189.796C275.128 185.373 271.54 181.787 267.113 181.787Z" fill="#FA6C6C"/>
<path d="M267.113 453.384H130.11C125.684 453.384 122.096 456.97 122.096 461.393V470.481C122.096 474.904 125.684 478.49 130.11 478.49H267.113C271.54 478.49 275.128 474.904 275.128 470.481V461.393C275.128 456.97 271.54 453.384 267.113 453.384Z" fill="#FA6C6C"/>
<path d="M216.864 259.386H155.235C150.809 259.386 147.221 262.972 147.221 267.395V276.483C147.221 280.906 150.809 284.492 155.235 284.492H216.864C221.291 284.492 224.879 280.906 224.879 276.483V267.395C224.879 262.972 221.291 259.386 216.864 259.386Z" fill="#FAD26C"/>
<path d="M305.943 492.184H155.235C150.809 492.184 147.221 495.769 147.221 500.192V509.281C147.221 513.704 150.809 517.289 155.235 517.289H305.943C310.369 517.289 313.958 513.704 313.958 509.281V500.192C313.958 495.769 310.369 492.184 305.943 492.184Z" fill="#FAD26C"/>
<path d="M331.068 375.785H155.235C150.809 375.785 147.221 379.37 147.221 383.793V392.881C147.221 397.305 150.809 400.89 155.235 400.89H331.068C335.494 400.89 339.082 397.305 339.082 392.881V383.793C339.082 379.37 335.494 375.785 331.068 375.785Z" fill="#6CE9FA"/>
<path d="M244.314 362.054L596.019 362.054C600.446 362.054 604.034 358.468 604.034 354.045V344.957C604.034 340.534 600.446 336.949 596.019 336.949L244.314 336.949C239.888 336.949 236.299 340.534 236.299 344.957V354.045C236.299 358.468 239.888 362.054 244.314 362.054Z" fill="#FAD26C"/>
<path d="M324.215 298.186H155.235C150.809 298.186 147.221 301.771 147.221 306.194V315.282C147.221 319.705 150.809 323.291 155.235 323.291H324.215C328.642 323.291 332.23 319.705 332.23 315.282V306.194C332.23 301.771 328.642 298.186 324.215 298.186Z" fill="#FA6C6C"/>
<path d="M543.486 375.785H415.619C411.193 375.785 407.604 379.37 407.604 383.793V392.881C407.604 397.305 411.193 400.89 415.619 400.89H543.486C547.912 400.89 551.501 397.305 551.501 392.881V383.793C551.501 379.37 547.912 375.785 543.486 375.785Z" fill="#FA6C6C"/>
<path d="M344.772 220.587H155.235C150.809 220.587 147.221 224.172 147.221 228.595V237.683C147.221 242.107 150.809 245.692 155.235 245.692H344.772C349.199 245.692 352.787 242.107 352.787 237.683V228.595C352.787 224.172 349.199 220.587 344.772 220.587Z" fill="#80FA6C"/>
<path d="M687.381 414.584H310.552C306.125 414.584 302.537 418.17 302.537 422.593V431.681C302.537 436.104 306.125 439.69 310.552 439.69H687.381C691.808 439.69 695.396 436.104 695.396 431.681V422.593C695.396 418.17 691.808 414.584 687.381 414.584Z" fill="#806CFA"/>
<path d="M392.737 375.785H353.949C349.523 375.785 345.935 379.37 345.935 383.793V392.881C345.935 397.305 349.523 400.89 353.949 400.89H392.737C397.164 400.89 400.752 397.305 400.752 392.881V383.793C400.752 379.37 397.164 375.785 392.737 375.785Z" fill="#80FA6C"/>
<path d="M536.634 298.186H347.097C342.67 298.186 339.082 301.771 339.082 306.194V315.282C339.082 319.705 342.67 323.291 347.097 323.291H536.634C541.06 323.291 544.648 319.705 544.648 315.282V306.194C544.648 301.771 541.06 298.186 536.634 298.186Z" fill="#80FA6C"/>
<path d="M470.396 492.184H326.541C322.115 492.184 318.526 495.769 318.526 500.192V509.281C318.526 513.704 322.115 517.289 326.541 517.289H470.396C474.823 517.289 478.411 513.704 478.411 509.281V500.192C478.411 495.769 474.823 492.184 470.396 492.184Z" fill="#80FA6C"/>
<path d="M543.485 259.386H239.746C235.32 259.386 231.731 262.972 231.731 267.395V276.483C231.731 280.906 235.32 284.492 239.746 284.492H543.485C547.912 284.492 551.5 280.906 551.5 276.483V267.395C551.5 262.972 547.912 259.386 543.485 259.386Z" fill="#806CFA"/>
<path d="M287.67 414.584H216.905C212.479 414.584 208.891 418.17 208.891 422.593V431.681C208.891 436.104 212.479 439.69 216.905 439.69H287.67C292.097 439.69 295.685 436.104 295.685 431.681V422.593C295.685 418.17 292.097 414.584 287.67 414.584Z" fill="#6CE9FA"/>
<path d="M618.902 362.204H717.076C721.502 362.204 725.091 358.619 725.091 354.195V345.107C725.091 340.684 721.502 337.099 717.076 337.099H618.902C614.476 337.099 610.888 340.684 610.888 345.107V354.195C610.888 358.619 614.476 362.204 618.902 362.204Z" fill="#6CE9FA"/>
<path d="M505.991 482.677L492.004 497.405C489.719 499.811 489.818 503.613 492.226 505.897L718.599 720.551C721.007 722.835 724.811 722.735 727.097 720.329L741.084 705.601C743.369 703.195 743.269 699.393 740.861 697.109L514.489 482.455C512.081 480.171 508.276 480.271 505.991 482.677Z" fill="#434343"/>
<path d="M498.354 489.977C580.525 403.453 576.942 266.75 490.352 184.642C403.762 102.534 266.954 106.114 184.784 192.638C102.613 279.162 106.195 415.865 192.785 497.973C279.375 580.081 416.183 576.501 498.354 489.977Z" fill="url(#paint0_radial)" stroke="#E7E7E7" stroke-width="16" stroke-linejoin="round"/>
<defs>
<radialGradient id="paint0_radial" cx="0" cy="0" r="1" gradientUnits="userSpaceOnUse" gradientTransform="translate(341.569 341.307) rotate(43.4781) scale(200.042 200.033)">
<stop stop-color="white" stop-opacity="0"/>
<stop offset="1" stop-color="white" stop-opacity="0.45"/>
</radialGradient>
</defs>
</svg>
