<svg width="653" height="663" viewBox="0 0 653 663" fill="none" xmlns="http://www.w3.org/2000/svg">
<path d="M92.5083 568.881C92.5083 553.857 104.69 541.677 119.717 541.677H175.154H257.799V662.057H92.5083V568.881Z" fill="#565252"/>
<path d="M238.753 447.818C238.753 432.794 250.935 420.614 265.961 420.614H355.407H472.066V541.677H238.753V447.818Z" fill="#565252"/>
<path d="M395.202 327.437C395.202 312.414 407.384 300.233 422.41 300.233H483.289H571.375V449.179H395.202V327.437Z" fill="#565252"/>
<path d="M239.686 501.498H318.035H396.387V662.057H239.686V501.498Z" fill="#565252"/>
<path d="M395.202 420.614H483.289H571.375V662.058H395.202V420.614Z" fill="#565252"/>
<path d="M26.9261 558.22C31.2182 537.176 61.2903 537.176 65.5824 558.22L81.4844 636.183C83.9779 648.406 74.6351 659.847 62.1564 659.847H30.3521C17.8735 659.847 8.53034 648.406 11.0239 636.183L26.9261 558.22Z" fill="#C4C4C4"/>
<path d="M30.2692 544.397C46.9866 544.397 60.5385 530.845 60.5385 514.132C60.5385 497.416 46.9866 483.864 30.2692 483.864C13.552 483.864 0 497.416 0 514.132C0 530.845 13.552 544.397 30.2692 544.397Z" fill="#C4C4C4"/>
<path d="M482.947 1.66071C482.947 1.28509 483.251 0.980591 483.627 0.980591H491.791C492.167 0.980591 492.47 1.28509 492.47 1.66071V299.554H482.947V1.66071Z" fill="#D1D1D1"/>
<path d="M653 71.033L486.178 132.289V9.77704L653 71.033Z" fill="#FF8A8A"/>
<path d="M487.709 2.34114C490.338 2.34114 492.47 1.88439 492.47 1.32096C492.47 0.75753 490.338 0.300781 487.709 0.300781C485.08 0.300781 482.947 0.75753 482.947 1.32096C482.947 1.88439 485.08 2.34114 487.709 2.34114Z" fill="#9A9999"/>
</svg>
