<svg width="224" height="166" viewBox="0 0 224 166" fill="none" xmlns="http://www.w3.org/2000/svg">
<rect x="102" y="109" width="26.5877" height="24.4084" fill="#A29F9F"/>
<path d="M143.638 71.5028C61.3784 101.243 222.734 129.718 143.638 138.576" stroke="#383838" stroke-width="1.5"/>
<path d="M36.6601 138.936C37.5094 138.327 38.5279 138 39.5727 138H196.512C197.9 138 199.227 138.578 200.172 139.594L219.309 160.166C221.094 162.085 219.733 165.209 217.112 165.209H9.33609C6.41998 165.209 5.21827 161.469 7.58853 159.771L36.6601 138.936Z" fill="#D6D5D5"/>
<path d="M166.758 142.066C166.336 141.4 166.814 140.531 167.602 140.531H194.458C194.735 140.531 195 140.646 195.189 140.849L211.04 157.832C211.637 158.471 211.183 159.514 210.309 159.514H178.358C178.016 159.514 177.697 159.339 177.513 159.049L166.758 142.066Z" fill="#333333"/>
<path d="M39.958 140.946C40.3076 140.677 40.7363 140.531 41.1774 140.531H160.815C161.516 140.531 162.166 140.898 162.528 141.499L171.552 156.482C172.355 157.815 171.395 159.514 169.839 159.514H21.6995C19.7898 159.514 18.9664 157.093 20.48 155.929L39.958 140.946Z" fill="#333333"/>
<path d="M43.0282 13C43.0282 5.82029 48.8485 0 56.0282 0H174.299C181.479 0 187.299 5.8203 187.299 13V103.812C187.299 110.991 181.479 116.812 174.299 116.812H56.0283C48.8486 116.812 43.0282 110.991 43.0282 103.812V13Z" fill="#DEDDDD"/>
<mask id="mask0" mask-type="alpha" maskUnits="userSpaceOnUse" x="43" y="0" width="145" height="117">
<path d="M43.0282 6.97383C43.0282 3.12229 46.1505 0 50.0021 0H180.326C184.177 0 187.299 3.12229 187.299 6.97383V109.838C187.299 113.689 184.177 116.812 180.326 116.812H50.0021C46.1505 116.812 43.0282 113.689 43.0282 109.838V6.97383Z" fill="white"/>
</mask>
<g mask="url(#mask0)">
<path d="M47.3869 16.127C47.3869 12.2754 50.5092 9.15316 54.3607 9.15316H175.967C179.818 9.15316 182.941 12.2754 182.941 16.127V100.249C182.941 104.1 179.818 107.223 175.967 107.223H54.3607C50.5092 107.223 47.3869 104.1 47.3869 100.249V16.127Z" fill="#1C1A1A"/>
<rect x="53.715" y="18.3202" width="54.1971" height="8.39674" rx="3" fill="#F25353"/>
<rect x="126.232" y="67.1739" width="29.7703" height="8.39673" rx="3" fill="#55A7B9"/>
<rect x="60.5851" y="67.1739" width="60.3038" height="8.39673" rx="3" fill="#55A7B9"/>
<rect x="87.8041" y="59.5405" width="27.4802" height="8.39673" rx="3" transform="rotate(-180 87.8041 59.5405)" fill="#4EBB52"/>
<rect x="170.506" y="59.5405" width="78.9176" height="8.39673" rx="3" transform="rotate(-180 170.506 59.5405)" fill="#55A7B9"/>
<rect x="51.425" y="84.7307" width="54.1971" height="8.39673" rx="3" fill="#F25353"/>
<rect x="60.5851" y="35.1136" width="65.6472" height="8.39674" rx="3" fill="#55A7B9"/>
<path d="M131.576 38.1136C131.576 36.4568 132.919 35.1136 134.576 35.1136H156.056C157.713 35.1136 159.056 36.4568 159.056 38.1136V40.5104C159.056 42.1672 157.713 43.5104 156.056 43.5104H134.576C132.919 43.5104 131.576 42.1672 131.576 40.5104V38.1136Z" fill="#F29C1A"/>
</g>
<path d="M77 132.717H153.276C153.276 127.903 149.373 124 144.559 124H115.138H85.7173C80.9029 124 77 127.903 77 132.717Z" fill="#BDBBBB"/>
</svg>
