<svg width="750" height="554" viewBox="0 0 750 554" fill="none" xmlns="http://www.w3.org/2000/svg">
<rect x="341.518" y="364.955" width="89.0215" height="81.7246" fill="#A29F9F"/>
<path d="M480.932 239.407C205.508 338.983 745.763 434.322 480.933 463.983" stroke="#383838" stroke-width="1.5"/>
<path d="M125.813 462.99C126.662 462.381 127.68 462.054 128.725 462.054H663.076C664.465 462.054 665.791 462.631 666.737 463.648L745.309 548.112C747.094 550.031 745.733 553.155 743.112 553.155H9.33605C6.41995 553.155 5.21827 549.416 7.58853 547.717L125.813 462.99Z" fill="#D6D5D5"/>
<path d="M556.057 472.063C555.635 471.398 556.114 470.528 556.902 470.528H652.108C652.385 470.528 652.65 470.643 652.839 470.846L710.294 532.405C710.891 533.045 710.438 534.088 709.563 534.088H595.89C595.547 534.088 595.228 533.912 595.045 533.623L556.057 472.063Z" fill="#333333"/>
<path d="M135.054 470.943C135.404 470.674 135.833 470.528 136.274 470.528H541.097C541.799 470.528 542.449 470.896 542.811 471.496L578.683 531.056C579.486 532.389 578.526 534.088 576.969 534.088H58.8466C56.9369 534.088 56.1135 531.667 57.6271 530.502L135.054 470.943Z" fill="#333333"/>
<path d="M144.068 13C144.068 5.82031 149.888 0 157.068 0H614.119C621.298 0 627.119 5.8203 627.119 13V378.111C627.119 385.29 621.298 391.111 614.119 391.111H157.068C149.888 391.111 144.068 385.29 144.068 378.111V13Z" fill="#DEDDDD"/>
<mask id="mask0" mask-type="alpha" maskUnits="userSpaceOnUse" x="144" y="0" width="484" height="392">
<path d="M144.068 23.3499C144.068 10.4541 154.522 0 167.418 0H603.769C616.665 0 627.119 10.4541 627.119 23.3499V367.761C627.119 380.657 616.665 391.111 603.769 391.111H167.418C154.522 391.111 144.068 380.657 144.068 367.761V23.3499Z" fill="white"/>
</mask>
<g mask="url(#mask0)">
<path d="M158.662 53.9966C158.662 41.1008 169.116 30.6467 182.012 30.6467H589.175C602.071 30.6467 612.525 41.1008 612.525 53.9966V335.655C612.525 348.551 602.071 359.005 589.175 359.005H182.012C169.116 359.005 158.662 348.551 158.662 335.655V53.9966Z" fill="#1C1A1A"/>
<rect x="179.85" y="61.3398" width="181.464" height="28.1141" rx="3" fill="#F25353"/>
<rect x="422.652" y="224.913" width="99.6772" height="28.114" rx="3" fill="#55A7B9"/>
<rect x="202.852" y="224.913" width="201.91" height="28.114" rx="3" fill="#55A7B9"/>
<rect x="293.987" y="199.354" width="92.0097" height="28.1141" rx="3" transform="rotate(-180 293.987 199.354)" fill="#4EBB52"/>
<rect x="570.891" y="199.354" width="264.233" height="28.1141" rx="3" transform="rotate(-180 570.891 199.354)" fill="#55A7B9"/>
<rect x="172.182" y="283.697" width="181.464" height="28.114" rx="3" fill="#F25353"/>
<rect x="202.852" y="117.568" width="219.801" height="28.1141" rx="3" fill="#55A7B9"/>
<path d="M440.543 120.568C440.543 118.911 441.886 117.568 443.543 117.568H529.553C531.21 117.568 532.553 118.911 532.553 120.568V142.682C532.553 144.339 531.209 145.682 529.553 145.682H443.543C441.886 145.682 440.543 144.339 440.543 142.682V120.568Z" fill="#F29C1A"/>
</g>
<path d="M257.812 444.366H513.202V444.366C513.202 428.246 500.134 415.178 484.015 415.178H385.507H287C270.88 415.178 257.812 428.246 257.812 444.366V444.366Z" fill="#BDBBBB"/>
</svg>
