<svg width="39" height="39" viewBox="0 0 39 39" fill="none" xmlns="http://www.w3.org/2000/svg">
<g clip-path="url(#clip0)">
<path fill-rule="evenodd" clip-rule="evenodd" d="M27.7278 9.51096C26.3382 9.51096 25.2117 10.6375 25.2117 12.0271V19.3239H39V9.51096H27.7278ZM12.2787 21.84C12.2787 20.4504 13.4052 19.3239 14.7948 19.3239H25.6141H26.1174H39V29.1871V39H25.6142H13.5368H12.2787H0V31.7032C0 30.3136 1.12651 29.1871 2.51613 29.1871L12.2787 29.1871V21.84Z" fill="#5A88FF"/>
<path d="M31.653 0H32.0052V9.51097H31.653V0Z" fill="#D1D1D1"/>
<path d="M38.199 2.72029L31.7798 5.07613V0.364441L38.199 2.72029Z" fill="#FF5959"/>
<path d="M31.8295 0.0663489C31.9395 0.0663489 32.0286 0.0514962 32.0286 0.0331745C32.0286 0.0148527 31.9395 0 31.8295 0C31.7196 0 31.6305 0.0148527 31.6305 0.0331745C31.6305 0.0514962 31.7196 0.0663489 31.8295 0.0663489Z" fill="#9A9999"/>
</g>
<defs>
<clipPath id="clip0">
<rect width="39" height="39" fill="white"/>
</clipPath>
</defs>
</svg>
