<svg width="39" height="39" viewBox="0 0 39 39" fill="none" xmlns="http://www.w3.org/2000/svg">
<path d="M0 31.7032C0 30.3136 1.12651 29.1871 2.51613 29.1871H13.5368V39H0V31.7032Z" fill="#5A88FF"/>
<path d="M25.6142 29.1871H12.2787V39H25.6142V29.1871Z" fill="#5A88FF"/>
<path d="M12.2787 21.84C12.2787 20.4504 13.4052 19.3239 14.7948 19.3239H26.1174V29.1871H12.2787V21.84Z" fill="#5A88FF"/>
<path d="M39 29.1871H25.6141V39H39V29.1871Z" fill="#5A88FF"/>
<path d="M39 19.3239H25.6141V29.1871H39V19.3239Z" fill="#5A88FF"/>
<path d="M25.2117 12.0271C25.2117 10.6375 26.3382 9.51096 27.7278 9.51096H39V19.3239H25.2117V12.0271Z" fill="#5A88FF"/>
<path d="M31.653 0H32.0052V9.51097H31.653V0Z" fill="#D1D1D1"/>
<path d="M38.199 2.72029L31.7798 5.07613V0.364441L38.199 2.72029Z" fill="#FF5959"/>
<path d="M31.8295 0.0663489C31.9395 0.0663489 32.0286 0.0514962 32.0286 0.0331745C32.0286 0.0148527 31.9395 0 31.8295 0C31.7196 0 31.6305 0.0148527 31.6305 0.0331745C31.6305 0.0514962 31.7196 0.0663489 31.8295 0.0663489Z" fill="#9A9999"/>
</svg>
