<svg width="40" height="29" viewBox="0 0 40 29" fill="none" xmlns="http://www.w3.org/2000/svg">
<g clip-path="url(#clip0_307_38)">
<path d="M38.2979 0H1.70213C0.762069 0 0 0.683355 0 1.52632V3.84406C0 4.68702 0.762069 5.37037 1.70213 5.37037H38.2979C39.2379 5.37037 40 4.68702 40 3.84406V1.52632C40 0.683355 39.2379 0 38.2979 0Z" fill="#E7F294"/>
<path d="M38.2979 11.8149H1.70213C0.762069 11.8149 0 12.4983 0 13.3413V15.659C0 16.502 0.762069 17.1853 1.70213 17.1853H38.2979C39.2379 17.1853 40 16.502 40 15.659V13.3413C40 12.4983 39.2379 11.8149 38.2979 11.8149Z" fill="#E7F294"/>
<path d="M38.2979 23.6296H1.70213C0.762069 23.6296 0 24.313 0 25.156V27.4737C0 28.3167 0.762069 29 1.70213 29H38.2979C39.2379 29 40 28.3167 40 27.4737V25.156C40 24.313 39.2379 23.6296 38.2979 23.6296Z" fill="#E7F294"/>
</g>
<defs>
<clipPath id="clip0_307_38">
<rect width="40" height="29" fill="white"/>
</clipPath>
</defs>
</svg>
