<svg width="36" height="30" viewBox="0 0 36 30" fill="none" xmlns="http://www.w3.org/2000/svg">
<path d="M7.02075 4.08513L2.20044 12.8619C1.97864 13.2658 2.12675 13.7734 2.53146 13.9957L19.5661 23.3512C19.9707 23.5735 20.4785 23.4262 20.7004 23.0223L25.5207 14.2455C25.7425 13.8416 25.5944 13.334 25.1897 13.1117L8.15506 3.75613C7.75044 3.53389 7.24263 3.68119 7.02075 4.08513Z" fill="#D24B4B"/>
<path d="M25.2616 21.5364L26.5324 19.2227L35.5688 25.0129L35.087 25.8901L25.2616 21.5364Z" fill="#C4C4C4"/>
<path d="M22.1455 29.29C19.6165 27.9011 18.6904 24.7284 20.0769 22.2039L24.4954 14.1585C25.882 11.6339 29.0563 10.7132 31.5853 12.1022L32.5011 12.6052C33.3104 13.0497 33.6068 14.0649 33.163 14.8728L25.33 29.135C24.8864 29.9429 23.8707 30.2375 23.0613 29.793L22.1455 29.29Z" fill="#EE4343"/>
<path d="M10.6864 1.10033C10.968 1.25497 11.1698 1.60269 11.2487 2.17789C11.3271 2.74819 11.2773 3.49904 11.0997 4.38455C10.7451 6.15294 9.89035 8.41031 8.61515 10.7323C7.33985 13.0543 5.89345 14.9867 4.59146 16.2348C3.93951 16.8598 3.33249 17.3046 2.80926 17.5445C2.28142 17.7865 1.87978 17.8028 1.59818 17.6482C1.31664 17.4935 1.11491 17.1458 1.03592 16.5706C0.95762 16.0003 1.00735 15.2494 1.18494 14.3639C1.53964 12.5955 2.39435 10.3382 3.66956 8.01616C4.94485 5.69417 6.39125 3.76174 7.69324 2.51367C8.34519 1.88868 8.95212 1.44387 9.47544 1.20396C10.0032 0.96202 10.4049 0.945686 10.6864 1.10033Z" fill="#FF5353" stroke="#DA3838"/>
</svg>
