<svg width="115" height="59" viewBox="0 0 115 59" fill="none" xmlns="http://www.w3.org/2000/svg">
<g clip-path="url(#clip0)">
<g filter="url(#filter0_d)">
<path d="M97.2096 3.99092L13.1337 12.5409C10.0888 12.8505 7.87396 15.5459 8.18663 18.5612L10.8759 44.4946C11.1885 47.5099 13.9103 49.7033 16.9552 49.3936L101.031 40.8436C104.076 40.534 106.291 37.8386 105.978 34.8233L103.289 8.88992C102.976 5.87463 100.254 3.68128 97.2096 3.99092Z" fill="#E9FDBF"/>
<path d="M97.245 4.33211L13.1691 12.8821C10.3146 13.1724 8.23812 15.6993 8.53125 18.5261L11.2205 44.4595C11.5136 47.2864 14.0653 49.3426 16.9198 49.0523L100.996 40.5024C103.85 40.2121 105.927 37.6851 105.634 34.8583L102.944 8.92493C102.651 6.09809 100.1 4.04182 97.245 4.33211Z" stroke="black" stroke-opacity="0.1"/>
</g>
<g filter="url(#filter1_d)">
<path d="M5.56294 16.2296C4.35846 16.9865 1.63875 18.6306 2.43554 23.0239C2.88346 25.4935 4.60235 26.8598 6.42522 27.4882V25.3034C5.66986 24.7974 5.06978 23.8458 4.67861 22.0207C4.12988 19.4606 6.21456 18.1975 7.32547 17.8859L37.2489 13.1178C37.7483 12.9575 38.8536 13.0881 39.2796 14.8929C39.7056 16.6976 38.5635 17.294 37.9392 17.3665L17.9633 20.5496C17.4356 20.8758 17.2975 21.4362 17.4273 21.8458C17.5976 22.3837 17.9594 22.5681 18.4703 22.6482L38.8505 19.4007C39.2165 19.1002 42.3789 17.6277 41.4248 14.3089C40.6615 11.6538 37.7607 10.9914 36.4056 10.9921L6.72491 15.7215C6.40142 15.7731 6.01462 15.9457 5.56294 16.2296Z" fill="#FAFF00"/>
</g>
<path d="M35.1832 34.6495C34.6074 34.7116 34.3031 34.5935 34.2704 34.295L33.4275 26.6304L31.1515 26.8758C31.0009 26.8921 30.8845 26.848 30.8022 26.7436C30.7253 26.6387 30.6731 26.4611 30.6456 26.2106L30.5981 25.7791C30.5706 25.5286 30.583 25.344 30.6352 25.2251C30.6928 25.1057 30.797 25.0379 30.9476 25.0216L37.7351 24.2896C37.8857 24.2733 37.9995 24.3177 38.0764 24.4226C38.1586 24.527 38.2135 24.7044 38.2411 24.9548L38.2885 25.3864C38.3161 25.6368 38.301 25.8217 38.2433 25.9412C38.1911 26.0601 38.0896 26.1276 37.939 26.1438L35.655 26.3901L36.4978 34.0548C36.5307 34.3532 36.2592 34.5334 35.6836 34.5955L35.1832 34.6495ZM42.3443 33.9742C41.6233 34.052 41.0702 33.9229 40.6848 33.5871C40.2989 33.2459 40.0625 32.681 39.9758 31.8925L39.4458 27.0731C39.4294 26.9239 39.4871 26.8045 39.6187 26.7148C39.7504 26.6251 39.9643 26.5643 40.2601 26.5324L40.6556 26.4897C40.9515 26.4578 41.1736 26.4716 41.3217 26.5311C41.4697 26.5907 41.552 26.695 41.5684 26.8442L42.0632 31.3439C42.0954 31.6369 42.187 31.8508 42.338 31.9855C42.4889 32.1202 42.7177 32.171 43.0244 32.1379C43.288 32.1095 43.5076 32.0022 43.6831 31.8161C43.8635 31.6242 43.9957 31.4158 44.0799 31.1911L43.578 26.6274C43.5616 26.4783 43.6193 26.3588 43.7509 26.2692C43.8826 26.1794 44.0964 26.1187 44.3924 26.0867L44.7878 26.0441C45.0838 26.0122 45.3057 26.026 45.4538 26.0855C45.602 26.145 45.6842 26.2493 45.7006 26.3986L46.1955 30.8983C46.2446 31.3458 46.2941 31.6963 46.3437 31.9498C46.3982 32.1973 46.4562 32.4282 46.5179 32.6426C46.5606 32.7836 46.5852 32.8834 46.5917 32.942C46.6034 33.0485 46.5135 33.1472 46.322 33.238C46.1306 33.3287 45.9075 33.404 45.6527 33.4638C45.4034 33.523 45.2007 33.5611 45.0446 33.5779C44.8725 33.5964 44.7414 33.5432 44.6514 33.4181C44.5663 33.2872 44.4883 33.0988 44.4178 32.853L44.3555 32.6575C44.1629 32.9856 43.8873 33.2768 43.5287 33.5311C43.1749 33.7795 42.7802 33.9272 42.3443 33.9742ZM50.5764 33.0864C49.8931 33.1602 49.3504 33.0273 48.9483 32.6878C48.551 32.3425 48.3096 31.7809 48.224 31.003L47.8303 27.4223L47.6043 27.4468C47.4537 27.463 47.3372 27.4189 47.255 27.3146C47.1781 27.2097 47.1258 27.032 47.0983 26.7816L47.072 26.5418C47.0445 26.2913 47.0568 26.1067 47.1091 25.9879C47.1667 25.8684 47.2708 25.8006 47.4215 25.7843L47.6475 25.76L47.6846 24.3893C47.6948 24.0862 47.9367 23.9092 48.4101 23.8581L48.8621 23.8093C49.1096 23.7827 49.2939 23.8006 49.4151 23.8629C49.5417 23.9248 49.6132 24.0303 49.6296 24.1795L49.7781 25.5302L50.4803 25.4545C50.6309 25.4382 50.7447 25.4825 50.8216 25.5875C50.9038 25.6919 50.9587 25.8692 50.9863 26.1197L51.0126 26.3595C51.0401 26.6099 51.0251 26.7947 50.9675 26.9142C50.9152 27.0331 50.8138 27.1007 50.6631 27.1168L49.9609 27.1926L50.3573 30.7971C50.3814 31.0156 50.4363 31.1687 50.5222 31.2565C50.6135 31.3437 50.7506 31.3775 50.9335 31.3577C50.9873 31.352 51.0591 31.3361 51.1488 31.3102C51.2379 31.2791 51.2932 31.2624 51.3147 31.26C51.4008 31.2507 51.4841 31.3145 51.5644 31.4514C51.6496 31.5824 51.7204 31.7311 51.7768 31.8976C51.8386 32.0634 51.8727 32.1757 51.8792 32.2343C51.9308 32.7032 51.4965 32.9872 50.5764 33.0864ZM56.3873 32.4598C55.2521 32.5822 54.3494 32.3453 53.6796 31.749C53.0151 31.1521 52.6145 30.2329 52.4781 28.9915C52.3421 27.7553 52.534 26.7776 53.0538 26.0584C53.5789 25.3386 54.4092 24.9175 55.5445 24.7951C56.6797 24.6727 57.5767 24.9075 58.2352 25.4996C58.8985 26.0859 59.2985 26.9997 59.435 28.2412C59.5715 29.4827 59.3801 30.4656 58.861 31.1902C58.3472 31.9142 57.5226 32.3373 56.3873 32.4598ZM56.2036 30.7894C56.6556 30.7406 56.9666 30.5238 57.1366 30.1388C57.3119 29.7533 57.3598 29.1982 57.2801 28.4736C57.201 27.7543 57.0339 27.225 56.7789 26.8859C56.5292 26.5463 56.1784 26.4008 55.7264 26.4495C54.8332 26.5459 54.466 27.316 54.6248 28.7599C54.7039 29.4792 54.8713 30.0111 55.1269 30.3555C55.3874 30.6941 55.7463 30.8387 56.2036 30.7894ZM62.2038 31.7354C61.6335 31.7969 61.332 31.6785 61.2991 31.3801L60.8034 26.8725C60.7284 26.1904 60.6203 25.6279 60.479 25.1849C60.4363 25.0439 60.4117 24.9441 60.4052 24.8855C60.3935 24.7789 60.4837 24.683 60.6758 24.5975C60.8726 24.5062 61.0957 24.431 61.3451 24.3717C61.5998 24.3119 61.8052 24.2736 61.9612 24.2567C62.128 24.2387 62.2504 24.2875 62.3285 24.4031C62.4119 24.5182 62.4934 24.69 62.573 24.9186L62.6443 25.1212C62.7909 24.7711 62.972 24.4874 63.1876 24.27C63.4081 24.0468 63.7066 23.9149 64.0832 23.8743C64.3953 23.8406 64.6194 23.8973 64.7553 24.0444C64.8907 24.1861 64.9691 24.3556 64.9908 24.5527C65.0025 24.6593 65.0005 24.8132 64.9845 25.0144C64.9679 25.2103 64.9328 25.3866 64.8793 25.5433C64.8257 25.7 64.7559 25.783 64.6699 25.7923C64.6106 25.7987 64.5201 25.7923 64.3982 25.7731C64.2321 25.7479 64.0926 25.7414 63.9796 25.7535C63.716 25.782 63.4928 25.8816 63.3101 26.0522C63.1323 26.217 63.0022 26.3954 62.9199 26.5876L63.4217 31.1512C63.4545 31.4496 63.1804 31.6301 62.5993 31.6928L62.2038 31.7354ZM66.4549 22.4943C66.1536 22.5269 65.9289 22.5133 65.7809 22.4539C65.6381 22.3938 65.5583 22.2865 65.5413 22.1319L65.4156 20.989C65.3986 20.8345 65.456 20.7124 65.5877 20.6227C65.7187 20.5277 65.9322 20.4643 66.2282 20.4324L66.6236 20.3897C66.9196 20.3578 67.1419 20.3742 67.2906 20.4391C67.4387 20.4986 67.5212 20.6056 67.5381 20.7601L67.6639 21.903C67.6809 22.0575 67.6235 22.1796 67.4918 22.2693C67.3655 22.3584 67.1517 22.4192 66.8504 22.4517L66.4549 22.4943ZM67.4094 31.1741C66.8337 31.2361 66.5295 31.118 66.4966 30.8196L65.7724 24.2339C65.756 24.0847 65.8136 23.9653 65.9453 23.8756C66.077 23.7859 66.2908 23.7251 66.5868 23.6932L66.9823 23.6505C67.2782 23.6186 67.5002 23.6324 67.6483 23.692C67.7963 23.7514 67.8786 23.8558 67.895 24.005L68.6192 30.5907C68.6521 30.8891 68.3806 31.0693 67.8049 31.1314L67.4094 31.1741ZM72.2464 30.7495C71.5148 30.8284 70.9557 30.6973 70.5699 30.3561C70.1888 30.009 69.9637 29.5211 69.8944 28.8924C69.8424 28.4181 69.8951 27.9812 70.0524 27.5814C70.2089 27.1763 70.5775 26.8104 71.1566 26.4838C71.7358 26.1571 72.5907 25.9329 73.7206 25.811L73.6686 25.3394C73.6381 25.0624 73.5266 24.8668 73.3347 24.7528C73.1421 24.6387 72.8525 24.6026 72.4653 24.6443C72.1424 24.6792 71.8688 24.7437 71.645 24.8379C71.4206 24.9268 71.1802 25.0417 70.9239 25.1826C70.7908 25.2616 70.7084 25.3029 70.6758 25.3064C70.5789 25.3168 70.4632 25.2565 70.3295 25.1254C70.2006 24.9937 70.0828 24.8392 69.9761 24.662C69.8695 24.4848 69.8113 24.3483 69.8002 24.2524C69.7822 24.0872 69.8833 23.9173 70.1036 23.7425C70.3288 23.5619 70.6461 23.4037 71.0562 23.2679C71.4649 23.1267 71.9256 23.0285 72.4362 22.9734C73.5127 22.8573 74.3191 22.986 74.8553 23.3595C75.3915 23.7276 75.6998 24.2794 75.7802 25.0147L76.0732 27.6761C76.1217 28.1183 76.1702 28.4608 76.2187 28.7036C76.2727 28.9458 76.3344 29.1845 76.4037 29.4196C76.4466 29.5605 76.4709 29.6604 76.4778 29.719C76.4889 29.8256 76.3967 29.9245 76.2 30.0158C76.0081 30.1065 75.785 30.1818 75.5308 30.2417C75.2758 30.3015 75.0701 30.3398 74.9142 30.3566C74.7473 30.3746 74.6191 30.3184 74.5283 30.1879C74.4424 30.0516 74.3649 29.8632 74.2949 29.6228C74.2859 29.5914 74.2769 29.56 74.2679 29.5286C74.2589 29.4972 74.2478 29.4661 74.2332 29.4353C74.1903 29.5424 74.0898 29.6908 73.9312 29.8804C73.7774 30.0695 73.5578 30.2521 73.2724 30.4285C72.9862 30.5996 72.6447 30.7065 72.2464 30.7495ZM72.7645 29.0033C73.034 28.9743 73.2772 28.8645 73.4961 28.6738C73.7143 28.4778 73.8681 28.2428 73.9575 27.9689L73.8716 27.1857C72.5318 27.3301 71.9 27.7514 71.9769 28.4494C71.9977 28.6359 72.0759 28.7811 72.2124 28.8849C72.3544 28.9882 72.5387 29.0277 72.7645 29.0033ZM80.349 29.8756C79.6659 29.9493 79.1235 29.8164 78.721 29.477C78.324 29.1317 78.0823 28.57 77.9971 27.7921L77.1103 19.7279C77.0764 19.4188 77.3472 19.2332 77.9229 19.1711L78.3261 19.1276C78.6219 19.0957 78.8415 19.1125 78.9849 19.1778C79.1332 19.2374 79.2156 19.3444 79.233 19.4989L80.1218 27.5872C80.146 27.8056 80.2035 27.9585 80.295 28.0457C80.3864 28.1329 80.5264 28.1664 80.7141 28.146C80.7626 28.1408 80.834 28.1223 80.9289 28.0906C80.9552 28.0823 80.9815 28.0741 81.0078 28.0659C81.0342 28.0576 81.0633 28.0518 81.0958 28.0483C81.1762 28.0396 81.2565 28.1037 81.3369 28.2406C81.4221 28.3716 81.4935 28.523 81.5503 28.6948C81.6071 28.8612 81.6383 28.971 81.6438 29.0243C81.6958 29.4932 81.2642 29.777 80.349 29.8756ZM84.4488 29.4334C84.0782 29.4735 83.7048 29.4733 83.33 29.4328C82.9559 29.3923 82.6393 29.3105 82.3802 29.1875C82.1274 29.0638 81.9902 28.9061 81.9694 28.7143C81.9562 28.5971 81.9833 28.4459 82.0498 28.2608C82.117 28.0757 82.2022 27.9128 82.3068 27.7722C82.4155 27.6256 82.516 27.5473 82.6074 27.5375C82.6559 27.5323 82.7647 27.5582 82.9344 27.6155C83.1319 27.6804 83.3203 27.7302 83.4983 27.765C83.6764 27.7997 83.8752 27.8051 84.0962 27.7814C84.3705 27.7517 84.5721 27.6788 84.701 27.5624C84.8292 27.4462 84.8832 27.2894 84.861 27.0923C84.8451 26.9431 84.7883 26.8251 84.692 26.7386C84.5999 26.646 84.4862 26.5747 84.3498 26.5247C84.2133 26.4747 84.0221 26.4171 83.7755 26.3521L83.5316 26.2895C83.2122 26.2053 82.9282 26.1011 82.6809 25.9768C82.4329 25.8526 82.2126 25.658 82.0207 25.393C81.8274 25.1227 81.7068 24.7691 81.659 24.3322C81.6057 23.8473 81.6646 23.4204 81.8364 23.0514C82.013 22.6765 82.2874 22.3774 82.6608 22.1539C83.0328 21.925 83.4852 21.7819 84.0179 21.7244C84.3248 21.6913 84.6477 21.6861 84.9878 21.7087C85.328 21.7314 85.6175 21.7918 85.8572 21.8899C86.1018 21.9876 86.2348 22.1296 86.2549 22.3161C86.2667 22.4226 86.248 22.5703 86.1981 22.759C86.153 22.9471 86.09 23.1157 86.0083 23.2646C85.9265 23.4136 85.8427 23.4927 85.7568 23.5021C85.7298 23.5049 85.6522 23.4891 85.5226 23.4545C85.3487 23.4032 85.1811 23.3673 85.0211 23.3469C84.8659 23.3205 84.6885 23.318 84.4897 23.3395C83.984 23.394 83.7491 23.5865 83.7852 23.9169C83.8018 24.066 83.8614 24.1889 83.9646 24.2857C84.0733 24.3818 84.2015 24.4569 84.3491 24.5111C84.4966 24.5653 84.7017 24.6267 84.9649 24.6953C85.2684 24.7812 85.4568 24.8364 85.5302 24.8608C85.9279 25.0067 86.2563 25.2219 86.5161 25.5066C86.7807 25.7854 86.9414 26.1805 86.9975 26.692C87.0509 27.1769 86.9878 27.6151 86.8077 28.0065C86.6276 28.3979 86.3359 28.7178 85.9327 28.9661C85.5302 29.2144 85.0356 29.3702 84.4488 29.4334Z" fill="#B743EE"/>
<path d="M31.5801 35.8225L87.6231 29.7786L87.6668 30.1782L31.6241 36.2221L31.5801 35.8225Z" fill="#B743EE"/>
</g>
<defs>
<filter id="filter0_d" x="2.00354" y="-1.19507" width="116.158" height="63.7747" filterUnits="userSpaceOnUse" color-interpolation-filters="sRGB">
<feFlood flood-opacity="0" result="BackgroundImageFix"/>
<feColorMatrix in="SourceAlpha" type="matrix" values="0 0 0 0 0 0 0 0 0 0 0 0 0 0 0 0 0 0 127 0"/>
<feOffset dx="3" dy="4"/>
<feGaussianBlur stdDeviation="4.5"/>
<feColorMatrix type="matrix" values="0 0 0 0 0 0 0 0 0 0 0 0 0 0 0 0 0 0 0.25 0"/>
<feBlend mode="normal" in2="BackgroundImageFix" result="effect1_dropShadow"/>
<feBlend mode="normal" in="SourceGraphic" in2="effect1_dropShadow" result="shape"/>
</filter>
<filter id="filter1_d" x="0.291748" y="8.99207" width="47.3117" height="24.4961" filterUnits="userSpaceOnUse" color-interpolation-filters="sRGB">
<feFlood flood-opacity="0" result="BackgroundImageFix"/>
<feColorMatrix in="SourceAlpha" type="matrix" values="0 0 0 0 0 0 0 0 0 0 0 0 0 0 0 0 0 0 127 0"/>
<feOffset dx="2" dy="2"/>
<feGaussianBlur stdDeviation="2"/>
<feColorMatrix type="matrix" values="0 0 0 0 0 0 0 0 0 0 0 0 0 0 0 0 0 0 0.25 0"/>
<feBlend mode="normal" in2="BackgroundImageFix" result="effect1_dropShadow"/>
<feBlend mode="normal" in="SourceGraphic" in2="effect1_dropShadow" result="shape"/>
</filter>
<clipPath id="clip0">
<rect width="115" height="59" fill="white"/>
</clipPath>
</defs>
</svg>
